<svg xmlns="http://www.w3.org/2000/svg" width="200" height="200" viewBox="0 0 1024 1024" xmlns:v="https://vecta.io/nano"><path d="M512 0C229.25 0 0 229.25 0 512c0 174.154 86.988 327.979 219.863 420.475a287.588 287.588 0 0 1 22.367-55.579c-26.779-7.1-44.258-33.538-39.617-61.417 3.637-21.858 19.858-38.45 40.008-43.671-17.371-11.471-27.35-32.417-23.713-54.271 3.637-21.862 19.858-38.454 40.008-43.675-17.371-11.467-27.35-32.417-23.713-54.271a54.338 54.338 0 0 1 35.821-42.442v-4.292c-14.75-11.908-22.858-31.179-19.529-51.217a54.075 54.075 0 0 1 19.546-33.354l-.092-3.683c0-21.35 2.808-42.038 8.017-61.75 6.717-26.75 18.087-50.925 32.654-72.25a241.925 241.925 0 0 1 107.813-88.613c31.65-13.842 64.271-20.317 93.287-18.475 97.742-6.196 236.308 81.438 240.846 227.713a54.104 54.104 0 0 1 19.475 33.296c3.35 20.117-4.837 39.471-19.704 51.367v4.079a54.342 54.342 0 0 1 36 42.5c3.633 21.854-6.342 42.804-23.712 54.271 20.146 5.229 36.371 21.813 40.008 43.675s-6.346 42.804-23.717 54.271c20.15 5.225 36.375 21.817 40.013 43.675 4.925 29.604-15.087 57.6-44.696 62.529-1.367.229-2.725.346-4.079.467 13.342 21.646 23.808 45.446 31.163 71 132.783-92.508 219.704-246.279 219.704-420.367C1024 229.25 794.754 0 512 0z" fill="#a0d9f6"/><path d="M299.996 802.45v-.121l2.854-2.508 1.563-1.375a271.333 271.333 0 0 1 9.046-7.558l.858-.696a281.958 281.958 0 0 1 21.533-15.479l1.379-.875a282.142 282.142 0 0 1 9.7-5.958l2.175-1.271a291.379 291.379 0 0 1 9.967-5.483l1.583-.842a298.192 298.192 0 0 1 24.35-11.237l2.337-.929a313.446 313.446 0 0 1 23.458-8.292l2.775-.867a327.129 327.129 0 0 1 26.529-6.75l3.621-.721a342.208 342.208 0 0 1 24.321-3.946l4.133-.525a357.917 357.917 0 0 1 14.079-1.358h25.75c-131.9 0-238.987-105.946-240.967-237.375a54.075 54.075 0 0 0-19.546 33.354c-3.333 20.038 4.775 39.308 19.529 51.217v4.292a54.338 54.338 0 0 0-35.821 42.442c-3.637 21.854 6.342 42.804 23.712 54.271-20.15 5.225-36.371 21.813-40.008 43.675-3.637 21.854 6.342 42.8 23.713 54.271-20.15 5.225-36.371 21.813-40.008 43.671-4.637 27.879 12.842 54.317 39.617 61.417a274.567 274.567 0 0 1 57.767-74.442zm212.238-76.8l-.233.004.233-.004z" fill="#fecf77"/><path d="M419.421 261.988A241.892 241.892 0 0 0 311.608 350.6c27.688-40.529 66.921-70.725 107.813-88.613zM512 725.654l.233-.004c130.5-.125 236.65-103.958 240.633-233.525-63.704 39.183-229.075-17.679-279.525-104.479-46.504 80.921-124.812 152.067-200.862 104.158-1.312-24.533 1.108-47.558 6.483-68.954a241.396 241.396 0 0 0-8.017 61.75c0 1.233.075 2.45.092 3.683C273.013 619.708 380.1 725.654 512 725.654z" fill="#fce9ea"/><path d="M473.338 387.646c50.454 86.8 215.821 143.662 279.525 104.479-3.983 129.567-110.133 233.4-240.633 233.525v.004h25.754c4.725.354 9.4.821 14.042 1.354l4.254.542a348.658 348.658 0 0 1 14.35 2.108 343.417 343.417 0 0 1 9.696 1.796l3.883.771c8.958 1.892 17.733 4.125 26.304 6.692l3.212 1.004a314.758 314.758 0 0 1 13.225 4.433 305.16 305.16 0 0 1 9.621 3.65l2.754 1.092a300.017 300.017 0 0 1 24.054 11.104l2.129 1.133a289.392 289.392 0 0 1 21.1 12.279l1.883 1.196a283.425 283.425 0 0 1 21.163 15.217c.529.417 1.042.85 1.567 1.271a284.583 284.583 0 0 1 10.417 8.8l2.117 1.858v.092a274.25 274.25 0 0 1 49.371 59.313c1.354-.121 2.712-.242 4.079-.467 29.604-4.929 49.617-32.921 44.696-62.529-3.633-21.858-19.862-38.454-40.013-43.675 17.371-11.467 27.35-32.413 23.717-54.271s-19.862-38.45-40.008-43.675c17.371-11.467 27.346-32.417 23.712-54.271-3.392-20.392-17.729-36.225-36-42.5v-4.079c14.862-11.896 23.05-31.25 19.704-51.367a54.075 54.075 0 0 0-19.475-33.296C749 324.958 610.429 237.321 512.692 243.517c.233.017.475.008.708.025 8.425 29.75-8.492 89.179-40.062 144.104z" fill="#fcba6f"/><path d="M723.767 802.05v85.967c-33.087-50.583-167.262-59.858-211.65-6.692-44.613-53.425-179.875-43.792-212.121 7.45V802.45a274.533 274.533 0 0 0-57.771 74.446 287.588 287.588 0 0 0-22.367 55.579C302.713 990.154 403.4 1024 511.996 1024c108.667 0 209.413-33.892 292.296-91.633-7.354-25.554-17.817-49.354-31.163-71a273.783 273.783 0 0 0-49.362-59.317z" fill="#f4b3b3"/><path d="M721.654 800.096a272.729 272.729 0 0 0-10.417-8.8l-1.567-1.271a282.233 282.233 0 0 0-21.163-15.217l-1.883-1.196a301.958 301.958 0 0 0-11.742-7.129 281.571 281.571 0 0 0-9.358-5.15l-2.129-1.133a300.017 300.017 0 0 0-24.054-11.104l-2.754-1.092a301.308 301.308 0 0 0-13.196-4.917 318.546 318.546 0 0 0-9.65-3.167l-3.212-1.004a328.125 328.125 0 0 0-26.304-6.692l-3.883-.771a362.042 362.042 0 0 0-9.696-1.796 331.775 331.775 0 0 0-14.35-2.108l-4.254-.542A356.017 356.017 0 0 0 538 725.654h-51.738a357.917 357.917 0 0 0-14.079 1.358l-4.133.525a343.517 343.517 0 0 0-24.321 3.946l-3.621.721a327.571 327.571 0 0 0-26.529 6.75l-2.775.867c-3.417 1.058-6.8 2.167-10.15 3.329l-3.212 1.133c-3.4 1.221-6.767 2.504-10.096 3.829l-2.337.929a300.25 300.25 0 0 0-24.35 11.237l-1.583.842a298.746 298.746 0 0 0-12.142 6.754 279.64 279.64 0 0 0-9.7 5.958l-1.379.875a280.817 280.817 0 0 0-21.533 15.479l-.858.696a276.508 276.508 0 0 0-9.046 7.558l-1.562 1.375-2.854 2.508v86.446c32.246-51.242 167.513-60.875 212.121-7.45 44.388-53.167 178.558-43.888 211.65 6.692v-86.058l-2.117-1.858z" fill="#fefefe"/><path d="M272.475 491.804c76.05 47.913 154.358-23.238 200.863-104.158 31.567-54.929 48.483-114.354 40.079-144.108-.233-.017-.475-.008-.708-.025-29.017-1.842-61.637 4.633-93.288 18.475-40.892 17.887-80.125 48.083-107.812 88.613-14.567 21.325-25.937 45.5-32.654 72.25-5.367 21.396-7.792 44.421-6.479 68.954z" fill="#fecf77"/></svg>