<svg xmlns="http://www.w3.org/2000/svg" width="1133" zoomAndPan="magnify" viewBox="0 0 849.75 510" height="680" preserveAspectRatio="xMidYMid meet" xmlns:v="https://vecta.io/nano"><defs><clipPath id="A"><path d="M253 181h344v308H253zm0 0" clip-rule="nonzero"/></clipPath><clipPath id="B"><path d="M481.656 351.398c15.023 2.738 26.602-4.609 36.516-12.617 5.645-4.562 10.043-14.023 10.129-21.328.121-13.281-3.82-26.27-11.496-37.93-6.641-10.082-16.434-17.344-27.016-17.762-15.395-.578-30.5 6.227-41.332 17.348-8.59 8.797-12.238 21.578-12.324 34.152-.039 5.852 1.828 12.781 5.27 17.387 10.043 13.363 22.328 23.738 40.211 20.789m-3.316 24.441l-19.379-5.309c-13.613-3.652-22.742-12.949-30.586-24.027-6.059-8.551-12.656-16.723-18.508-25.437-3.402-5.062-5.477-11.039-8.754-16.227-3.527-5.562-16.145-7.969-23.902-5.105-5.727 2.117-12.863 12.324-11.703 18.301 1.742 9.047 3.777 18.137 6.766 26.848 3.195 9.215 1.824 16.434-7.512 20.043-11.371 4.441-23.406 7.016-35.191 10.336-1.906.539-3.898.785-5.852 1.16-.125.871-.207 1.785-.332 2.656 5.563 1.371 11.082 3.691 16.684 3.941 21.453.871 42.992 1.949 64.445 1.285 26.473-.828 43.363 18.262 49.961 39.84 2.906 9.543 6.93 19.172 2.824 29.254-2.988 7.344-5.605 15.313-14.816 17.719-1.699.457-3.32 1.992-4.523 3.402-8.422 10.086-20.375 12.203-32.16 12.906-13.195.746-26.891 1.41-39.629-1.367-16.266-3.527-33.031-8.301-47.348-16.477-27.844-15.977-52.66-36.598-61.5-69.301-3.898-14.687-3.941-30.746-3.941-46.184 0-14.027.828-28.426 4.191-41.914 8.258-33.031 21.992-63.531 46.559-88.18 5.023-5.023 9.215-10.914 13.859-16.352 15.148-17.758 35.98-23.777 57.809-26.266 8.258-.957 16.93 2.281 25.477 3.32 15.563 1.867 30.918 6.305 46.77 3.566 8.672-1.492 17.512-2.445 25.891-4.895 13.031-3.82 24.484-.996 36.477 4.563 26.145 12.078 41.914 34.277 57.02 57.02 4.688 7.055 7.094 15.684 10.25 23.695 4.688 11.949 9.957 23.734 13.484 36.016 4.898 17.059 6.184 34.652 3.941 52.414-2.902 22.699-18.508 36.141-35.23 48.84-1.121.871-2.531 1.578-3.359 2.656-13.695 17.555-34.898 14.816-53.242 18.219-9.379 1.742-20.914-1.203-27.18-11.871-7.926-13.441-7.055-26.184 2.242-39.09" clip-rule="nonzero"/></clipPath><clipPath id="C"><path d="M352.691 20H495v155H352.691zm0 0" clip-rule="nonzero"/></clipPath><clipPath id="D"><path d="M494.105 90.547c.168 31.453-13.113 59.754-44.898 75.066-3.195 1.535-6.477 3.238-9.047 5.605-4.648 4.188-9.918 3.648-15.23 2.777-8.176-1.367-16.348-3.027-24.441-4.77-13.734-2.988-23.859-11.578-31.746-22.453-26.102-35.895-18.133-78.844 10.25-107.727 15.48-15.809 34.941-20.789 56.977-17.18 12.406 2.035 24.316 4.441 34.441 12.492 13.613 10.789 18.797 25.977 22.078 42.121.953 4.605 1.121 9.375 1.617 14.109" clip-rule="nonzero"/></clipPath><path id="E" d="M232.59 0h384.316v508.918H232.59zm0 0"/></defs><g clip-path="url(#A)"><g clip-path="url(#B)"><use href="#E" fill="#fad275"/></g></g><g clip-path="url(#C)"><g clip-path="url(#D)"><use href="#E" fill="#fad275"/></g></g></svg>