<svg xmlns="http://www.w3.org/2000/svg" width="1133" zoomAndPan="magnify" viewBox="0 0 849.75 510" height="680" preserveAspectRatio="xMidYMid meet" xmlns:v="https://vecta.io/nano"><style><![CDATA[.B{clip-rule:nonzero}.C{fill:#fad275}]]></style><defs><clipPath id="A"><path d="M159 190h531.688v195H159zm0 0" class="B"/></clipPath><clipPath id="B"><path d="M690.332 285.332c0 28.566-5.441 44.113-11.582 54.609-6.75 11.539-15.461 21.73-25.477 30.309-13.848-12.758-29.613-19.465-46.16-19.465-17.379 0-34.316 7.578-48.992 21.816-3.879 3.746-7.535 7.621-11.105 11.496-.566-.609-1.09-1.262-1.656-1.914-11.887-13.719-26.695-30.746-50.996-30.746-4.613 0-9.363.652-14.109 1.961-19.336 5.398-35.969 17.07-50.645 27.391l-5.012 3.527-3.48-2.699c-14.328-10.973-30.574-23.473-50.344-29.223-5.141-1.48-10.32-2.262-15.371-2.262-24.648 0-40.719 17.199-53.609 32.484l-1.352-1.609C278.973 355.355 257.109 350 242.566 350c-12.195 0-29.875 3.789-48.469 20.688-25.781-24.301-41.242-61.055-32.445-95.633 5.836-23.039 21.426-42.332 39.762-56.57 12.367-9.625 26.039-17.246 40.02-24.125 5.094-2.527 10.102 3.438 7.188 8.445-6.055 10.367-10.586 21.73-13.285 33.535-4.398 19.465-2.785 42.547 11.543 55.871 6.355 5.969 14.629 9.32 22.949 11.324 22.211 5.398 46.379 1.742 66.148-10.105 2.441-1.437 4.836-3.047 7.621-3.352 3.051-.391 6.055.785 8.887 1.914 34.141 13.109 78.516 17.77 112.922 7.188 4.352-1.305 8.664-2.613 13.148-3.266 21.035-3.18 32.316 2.785 51.344 5.836 28.613 4.527 60.188-7.492 75.734-32.926 13.586-22.34 11.102-55.043-5.664-74.465-1.523-1.742.176-4.445 2.309-3.66 13.633 5.227 27.305 10.016 39.281 19.031 17.813 13.414 48.82 47.031 48.82 75.559" class="B"/></clipPath><clipPath id="C"><path d="M155 378h539v110H155zm0 0" class="B"/></clipPath><clipPath id="D"><path d="M685.238 480.125c-5.184 4.832-10.496 6.969-15.809 6.969-7.621 0-15.066-4.445-21.645-11.672-6.75-7.492-12.977-15.504-19.551-23.125l-15.242-17.16c-23.516 14.504-44.465 37.281-65.848 37.715h-.523c-20.031 0-40.5-22.82-59.398-34.535-18.727 11.672-38.891 31.488-62.23 37.016-2.656.656-5.184.961-7.535.961-24.211 0-35.492-29.961-50.863-41.461-22.559 13.371-41.98 30.574-64.148 36.539-3.094.828-5.965 1.219-8.711 1.219-22.559 0-34.531-26.129-52.867-42.676l-40.238 44.199c-6.621 7.535-13.937 12.414-21.469 12.414-5.055 0-10.234-2.223-15.332-7.359-11.973-12.066-9.492-26.305 1.918-38.977 12.02-13.414 23.297-27.656 35.449-40.937 3.352-3.656 6.707-6.793 10.102-9.492 9.887-7.883 20.078-11.758 30.223-11.758 14.328 0 28.48 7.75 41.504 23.125 4.617 5.527 9.492 10.84 15.109 16.98l3.137 3.484c.785-.781 1.566-1.523 2.309-2.395 16.766-17.594 29.742-41.066 51.473-41.066 3.008 0 6.141.438 9.496 1.438 22.688 6.574 41.98 25.781 59.531 37.363 19.684-11.973 39.453-29.961 62.23-36.273 2.961-.828 5.793-1.176 8.449-1.176 22.512 0 34.055 27.172 52.605 40.891.523.391 1.09.785 1.566 1.133.609-.609 1.133-1.262 1.699-1.871 7.969-8.711 15.285-17.332 23.344-25.129 10.844-10.453 22.559-15.633 34.184-15.633 9.406 0 18.727 3.395 27.438 10.102 3.223 2.395 6.355 5.355 9.406 8.754l39.02 43.547c10.844 12.457 14.152 26.957 1.219 39.02" class="B"/></clipPath><clipPath id="E"><path d="M251.406 208h69.566v78h-69.566zm0 0" class="B"/></clipPath><clipPath id="F"><path d="M318.383 270.871c-8.578-12.977-18.027-25.344-27.477-37.668l-12.891-16.852c-2.137-2.789-4.66-5.184-7.84-6.707-2.699-1.309-6.227-3.137-8.187 2.219-5.398 15.027-9.187 28.309-10.059 44.246-.219 3.57-.262 7.141.695 10.582 1.961 6.84 7.969 11.934 14.59 14.547s13.805 3.223 20.902 3.746c10.148.781 21.426 1.219 29.266-5.27 1.352-1.133 2.613-2.57 2.699-4.312.086-1.656-.828-3.137-1.742-4.531" class="B"/></clipPath><clipPath id="G"><path d="M503 197h91v85h-91zm0 0" class="B"/></clipPath><clipPath id="H"><path d="M589.953 213.258c-4.094-9.797-16.461-16.375-18.465-16.07-1.305.219-2.047 1.48-2.699 2.613-15.199 28.219-22.687 47.816-62.754 67.937-3.918 1.957-3.527 7.75.652 9.059 16.289 5.137 39.934 6.574 52.871 2.742 9.883-2.918 17.547-8.84 24.516-16.332 5.402-5.789 8.797-13.281 9.406-21.164.742-9.625.219-19.812-3.527-28.785" class="B"/></clipPath><clipPath id="I"><path d="M243.453 21h349.836v258H243.453zm0 0" class="B"/></clipPath><clipPath id="J"><path d="M559.816 120.457c-3.395.262-7.707 1.652-10.059.129-2.176-1.437-2.309-6.008-3.395-9.187-14.809-41.461-43.332-69.027-84.617-83.789-19.945-7.141-39.934-7.75-60.141-1.566-7.969 2.438-14.805 6.793-19.336 13.977-3.789 6.055-3.137 12.371 2.742 16.375 5.664 3.875 12.066 7.23 18.598 9.102 10.758 3.051 21.816 3.223 32.27-2.176 1.043-.523 2.09-1.176 2.961-1.918 4.008-3.352 3.746-6.707-.785-9.578-6.398-4.051-13.238-5.055-20.465-2.832-1.09.348-2.137.742-3.18 1.047-5.617 1.695-9.059.348-11.02-4.355-2.004-4.793-.434-10.758 3.965-12.848 14.98-7.187 39.105-5.227 49.949 12.758 8.055 13.328 3.137 24.563-10.363 33.188-11.062 7.055-23.473 7.969-36.059 6.793-12.281-1.133-24.258-3.875-33.926-12.02-12.281-10.367-17.855-23.387-13.371-39.586.09-.348 0-.785 0-1.875-4.703 2.398-9.145 4.398-13.281 6.883-30.832 18.332-51.777 44.418-61.535 79.129-.957 3.438-2.742 3.527-5.484 3.047-10.234-1.828-19.773-.652-28.133 6.184-10.453 8.578-14.242 22.734-9.363 35.711 4.617 12.238 17.461 20.422 30.832 19.598 3.484-.219 6.926-.699 10.758-1.133 1.219 3.699 2.352 7.445 3.699 11.063 5.922 15.59 13.457 29.176 22.602 40.715 43.551 57.789 159.867 62.973 212.125.09 20.035-25.129 23.082-50.125 23.082-50.125.262-.742 1.875-1.437 2.875-1.437 2.785.043 5.574.609 8.359.785 17.855 1.219 33.141-13.023 33.141-30.879 0-18.422-15.371-32.746-33.617-31.266" class="B"/></clipPath><path id="K" d="M134.129 0h580.41v508.852h-580.41zm0 0"/></defs><g clip-path="url(#A)"><g clip-path="url(#B)"><use href="#K" fill="#7c9ecc"/></g></g><g clip-path="url(#C)"><g clip-path="url(#D)"><use href="#K" fill="#a2cec5"/></g></g><g clip-path="url(#E)" class="C"><g clip-path="url(#F)"><use href="#K"/></g></g><g clip-path="url(#G)" class="C"><g clip-path="url(#H)"><use href="#K"/></g></g><g clip-path="url(#I)" class="C"><g clip-path="url(#J)"><use href="#K"/></g></g></svg>