<svg xmlns="http://www.w3.org/2000/svg" width="1133" zoomAndPan="magnify" viewBox="0 0 849.75 510" height="680" preserveAspectRatio="xMidYMid meet" xmlns:v="https://vecta.io/nano"><style><![CDATA[.B{clip-rule:nonzero}.C{fill:#fad275}]]></style><defs><clipPath id="A"><path d="M82 41h686v427H82zm0 0" class="B"/></clipPath><clipPath id="B"><path d="M764.824 327.664c-.824-9.641-2.305-20.105-9.145-26.941-7.578-7.582-19.359-8.57-30.07-9.148-93.844-4.613-187.766-9.227-281.609-4.859-79.012 3.707-158.187 13.758-236.867 5.602-8.816-.906-18.129-2.305-24.555-8.32-7.25-6.754-8.812-17.383-9.969-27.27L148.719 58.414c-.578-4.859-1.402-10.215-5.109-13.43-3.379-3.047-8.402-3.379-12.934-3.461-12.195-.246-22.082-.742-32.957.082-7.414.578-13.184 6.676-13.266 14.09l-1.73 365.809c-.164 9.063-.164 18.539 3.957 26.613 9.887 19.359 36.66 20.516 58.332 18.949 4.531-.332 9.555-.906 12.688-4.285 2.059-2.223 2.801-5.355 3.211-8.32 2.555-16.727-2.059-35.348.164-51.578 1.484-10.711 10.793-18.617 21.586-19.031l181.012-7.414c89.805-3.707 180.266-7.332 269.246 5.438 18.211 2.637 40.043 9.309 43.914 27.27 1.98 9.313-1.73 19.031-.574 28.426 2.059 16.641 19.359 27.93 36.168 29.082 3.543.25 7.168.164 10.711-.246 22.164-2.391 39.547-20.68 41.605-42.926 2.965-31.883 3.051-64.016.246-95.984" class="B"/></clipPath><clipPath id="C"><path d="M198 99h150v153H198zm0 0" class="B"/></clipPath><clipPath id="D"><path d="M320.086 111.969c-21.09-17.715-61.789-13.184-77.199-7.91s-23.727 10.379-30.812 21.008c-10.215 15.324-12.77 34.441-13.512 52.895-.66 15.406 0 31.637 7.664 45.066 14.992 26.531 51.492 32.543 81.316 26.035 19.113-4.203 38.395-13.184 48.859-29.66 2.801-4.449 4.941-9.309 6.672-14.254 10.957-32.129 3.047-71.266-22.988-93.098" class="B"/></clipPath><clipPath id="E"><path d="M390 101h367v150H390zm0 0" class="B"/></clipPath><clipPath id="F"><path d="M724.207 145.582c-27.684-27.437-66.98-40.535-105.871-43.582s-77.773 2.965-116.25 8.98c-23.316 3.625-58.332 4.695-81.648 8.32-6.098.988-12.605 2.059-17.301 6.18-6.098 5.355-7.414 14.168-8.32 22.16-4.039 34.934-6.098 55.121-2.805 89.23.66 6.672 6.262 11.699 12.938 11.617l202.184-1.156c43.254-.824 86.754-1.73 129.68 3.379 8.734.988 16.891-4.695 18.539-13.348 6.098-32.543-7.25-68.137-31.145-91.781" class="B"/></clipPath><path id="G" d="M41.445 0h767.258v508.852H41.445zm0 0"/></defs><g clip-path="url(#A)" class="C"><g clip-path="url(#B)"><use href="#G"/></g></g><g clip-path="url(#C)" class="C"><g clip-path="url(#D)"><use href="#G"/></g></g><g clip-path="url(#E)" class="C"><g clip-path="url(#F)"><use href="#G"/></g></g></svg>