<svg xmlns="http://www.w3.org/2000/svg" width="1133" zoomAndPan="magnify" viewBox="0 0 849.75 510" height="680" preserveAspectRatio="xMidYMid meet" xmlns:v="https://vecta.io/nano"><style><![CDATA[.B{clip-rule:nonzero}.C{fill:#fad275}.D{fill:#f2efea}]]></style><defs><clipPath id="A"><path d="M196 29h457.824v451H196zm0 0" class="B"/></clipPath><clipPath id="B"><path d="M204.188 255.426c5.25-165.68-36.645-216.719 74.934-223.09 386.473 16.402 379.098-97.121 372.195 311.598 3.656 60.125 1.063 132.875-76.293 135.117H280.063c-112.105-6.785-81.07-57.941-75.816-223.625" class="B"/></clipPath><clipPath id="C"><path d="M457.043 149.078H555v218.648h-97.957zm0 0" class="B"/></clipPath><clipPath id="D"><path d="M554.551 341.984c.293 18.176-22.836 25.844-49.504 25.254-13.336-.707-19.117-8.91-20.949-20.828l-25.902-168.336c-2.004-13.395 2.953-20.77 16.285-23.367 16.758-1.473 47.086-15.164 52.043 9.441l27.969 177.895" class="B"/></clipPath><clipPath id="E"><path d="M286.098 148H356v220h-69.902zm0 0" class="B"/></clipPath><clipPath id="F"><path d="M322.133 216.129c-15.93-3.832-31.918 17.586-8.73 17.938 9.203-1.945 25.727 6.078 26.316-9.32.059-13.926-12.039-6.375-17.586-8.617m-.824 66.617c-6.02 4.07-19.59-5.547-19.355 9.5.18 13.926 12.688 8.613 20.18 8.73 7.023.117 18.586 4.957 18.527-8.91-.059-14.512-12.273-5.957-19.293-9.379m1.652-11.625c5.898-3.246 16.168-5.723 16.992-9.973 3.07-15.93-10.504-10.914-18.113-10.621-7.199.238-19.707-6.016-19.883 8.559-.238 14.809 12.508 7.137 21.063 12.094m-36.816-13.746l.059-83.312c-2.301-28.324 23.363-26.375 44.25-25.727 17.879.117 25.02 7.078 25.078 25.313v167.863c-.059 18.941-7.023 25.727-25.961 25.965-19.297.648-44.902 2.418-43.309-24.191l-.059-85.91" class="B"/></clipPath><clipPath id="G"><path d="M373 148h67v219.727h-67zm0 0" class="B"/></clipPath><clipPath id="H"><path d="M404.621 284.398c10.914 2.004 15.93-1.238 21.832-9.559-5.488-6.727-11.801-10.797-20.711-8.203-7.492 1.238-19.941-5.016-20.004 8.91-.059 14.277 12.805 6.727 18.824 8.852m34.695-26.02l-.062 84.727c-.059 18.293-5.898 24.016-24.25 24.309-41.656.652-41.715.59-41.715-41.598V173.352c0-21.77 3.305-25.016 24.664-25.016 41.301 0 41.301 0 41.301 41.008v69.094" class="B"/></clipPath><clipPath id="I"><path d="M301 249h40v23h-40zm0 0" class="B"/></clipPath><clipPath id="J"><path d="M322.961 271.063c-16.109 0-21.242 2.715-21.066-12.094.238-14.574 12.688-8.262 19.887-8.559 7.609-.234 21.18-5.309 18.113 10.621-.828 4.25-.887 9.973-16.992 9.973" class="B"/></clipPath><clipPath id="K"><path d="M301 281h40v21h-40zm0 0" class="B"/></clipPath><clipPath id="L"><path d="M321.309 282.688c13.805-.531 19.234-5.191 19.293 9.379.059 13.809-11.504 8.969-18.527 8.91-7.492-.117-20 5.195-20.18-8.73-.176-15.047 5.547-8.969 19.355-9.5" class="B"/></clipPath><clipPath id="M"><path d="M301 215h38.766v19.551H301zm0 0" class="B"/></clipPath><clipPath id="N"><path d="M322.133 216.129c5.605 2.184 17.645-5.309 17.586 8.617-.652 15.457-17.113 7.375-26.316 9.32-23.187-.352-7.199-21.77 8.73-17.937" class="B"/></clipPath><clipPath id="O"><path d="M386 231h41v19.453h-41zm0 0" class="B"/></clipPath><clipPath id="P"><path d="M406.215 250.059c-34.52 2.359-20.18-25.785 9.262-17.523 4.074.824 9.559 5.25 10.504 8.965 2.418 11.742-12.566 7.969-19.707 8.617zm0 0" class="B"/></clipPath><clipPath id="Q"><path d="M385.484 265H427v21h-41.516zm0 0" class="B"/></clipPath><clipPath id="R"><path d="M404.621 284.398c-6.02-2.125-18.883 5.426-18.82-8.852.059-13.926 12.508-7.672 20-8.91 8.852-2.535 20.945-.883 20.711 8.203s-10.914 11.504-21.832 9.559" class="B"/></clipPath><path id="S" d="M166.836 0h516.805v508.852H166.836zm0 0"/></defs><g clip-path="url(#A)" class="C"><g clip-path="url(#B)"><use href="#S"/></g></g><g clip-path="url(#C)" class="D"><g clip-path="url(#D)"><use href="#S"/></g></g><g clip-path="url(#E)" class="D"><g clip-path="url(#F)"><use href="#S"/></g></g><g clip-path="url(#G)" class="D"><g clip-path="url(#H)"><use href="#S"/></g></g><g clip-path="url(#I)" class="C"><g clip-path="url(#J)"><use href="#S"/></g></g><g clip-path="url(#K)" class="C"><g clip-path="url(#L)"><use href="#S"/></g></g><g clip-path="url(#M)" class="C"><g clip-path="url(#N)"><use href="#S"/></g></g><g clip-path="url(#O)" class="C"><g clip-path="url(#P)"><use href="#S"/></g></g><g clip-path="url(#Q)" class="C"><g clip-path="url(#R)"><use href="#S"/></g></g></svg>