<svg xmlns="http://www.w3.org/2000/svg" width="200" height="200" viewBox="0 0 1024 1024" xmlns:v="https://vecta.io/nano"><path d="M512.186 6.14C234.085 6.14 7.824 232.401 7.824 510.502s226.261 504.362 504.362 504.362 504.362-226.261 504.362-504.362S790.287 6.14 512.186 6.14zm282.224 407.66L466.419 750.04c-7.839 8.024-18.59 12.58-29.816 12.643h-.227a42.04 42.04 0 0 1-29.716-12.314l-176.37-176.33c-16.421-16.396-16.421-43.014 0-59.431s43.014-16.421 59.431 0L436.048 660.89l298.275-305.866c16.253-16.581 42.892-16.892 59.431-.656 16.602 16.233 16.893 42.85.656 59.432z" fill="#f6ad48"/></svg>