<svg xmlns="http://www.w3.org/2000/svg" width="1133" zoomAndPan="magnify" viewBox="0 0 849.75 510" height="680" preserveAspectRatio="xMidYMid meet" xmlns:v="https://vecta.io/nano"><defs><clipPath id="A"><path d="M161.051 28H689v324H161.051zm0 0" clip-rule="nonzero"/></clipPath><clipPath id="B"><path d="M236.633 270.316c0-3.387 1.863-4.121 1.805-5.812-.113-7.281-2.258-14.508-2.09-21.734.172-8.352 5.535-12.586 12.645-16.875 2.543-1.523 5.25-2.539 7.902-3.953 2.484-1.297 5.645-6.887 4.402-9.426-.902-1.918-5.137-5.418-7.336-5.984-2.316-.562-5.703 3.332-7.848 4.348-5.023 2.316-9.934 4.742-14.223 8.129-5.531 4.348-10.441 10.273-12.25 17.496s-.055 14.734 2.598 21.168c2.652 6.492 5.758 10.949 14.395 12.645m296.449 51.871c-6.152-.621-12.191-3.441-18.344-3.441s-12.25 2.09-18.344 2.484-12.418-1.75-18.516-1.355c-8.129.563-16.594 1.805-24.496 3.781s-15.918 4.629-23.484 7.621c-3.555 1.41-7.504 2.371-11.004 3.949-6.551 2.992-11.797 8.863-18.629 10.668-6.887 1.863-13.941 3.277-21.055 4.18s-14.223-.059-21.391.055c-6.434.113-12.812 1.863-19.25 1.809s-12.699-2.937-19.133-3.332-12.926 1.016-19.305.113c-7.848-1.074-15.859-.281-23.707-1.074s-15.129-5.699-22.918-7.055c-6.488-1.129-13.715.848-19.926-1.07-6.262-1.977-11.398-6.664-17.102-9.937-5.531-3.16-11.684-5.812-16.539-10.609-2.371-2.371-4.008-6.719-7-8.184-6.996-3.387-14.617-5.137-18.852-10.727s-3.613-14-6.039-21.109c-1.75-5.137-2.992-9.766-3.668-15.016s-3.273-10.328-2.937-15.691c.398-6.039-1.07-12.984 1.355-18.57 3.047-7.055 8.129-11.684 11.063-16.199 3.727-5.703 7.227-11.121 12.816-14.848 4.516-2.988 11.344-3.387 18.457-6.434s14.898-3.555 22.238-5.926c6.887-2.258 12.758-8.184 19.754-9.934 8.188-2.031 15.637-5.195 19.191-12.191 2.711-5.25 2.258-12.082 3.445-17.895 1.637-7.621 2.992-15.355 5.813-22.238 2.879-7.059 9.934-11.969 13.887-18.402s6.941-13.379 11.852-19.25c4.801-5.754 10.668-10.496 16.203-15.859 4.117-4.008 7.902-8.355 12.418-11.91s9.313-6.773 13.941-10.16c6.379-4.629 13.094-7.734 20.32-10.16s14.617-3.16 22.406-3.895c7.453-.734 14.563-5.59 22.016-6.098s15.125 2.598 22.578 2.371c6.266-.168 13.773-2.48 19.699-.336s10.555 7.563 16.254 10.102 10.559 6.66 16.031 9.711 10.781 5.926 15.918 9.594 10.16 6.941 14.676 11.063c4.574 4.234 11.289 6.492 15.184 11.289s8.129 9.766 11.348 15.129c3.16 5.25 1.973 12.867 4.457 18.625 3.727 8.695 10.613 15.016 17.102 22.242 5.984 6.66 11.18 13.039 18.57 15.973 7.508 2.934 15.805 3.273 24.613 2.484 5.98-.566 11.965 1.977 17.949 1.977s11.738-.398 17.723.281 12.758-.059 18.117 3.105c5.25 3.102 9.938 7.844 13.773 12.527 3.953 4.801 5.137 11.176 6.719 16.934 1.75 6.211 3.387 12.305 4.176 18.629s2.031 12.645 2.258 19.078 2.316 12.871 2.258 19.246c-.113 9.484-6.152 18.062-11.117 26.363-3.559 5.926-8.242 10.723-12.703 15.859s-9.82 8.918-15.07 13.434c-4.629 3.953-7.621 10.781-13.66 11.965-6.602 1.242-13.715-.395-20.32.68s-13.207 1.523-19.867 2.199-13.207 5.422-19.926 5.363c-7.055-.055-14.109-2.539-21.168-2.484s-14.168.508-21.223.508" clip-rule="nonzero"/></clipPath><clipPath id="C"><path d="M229 337h385v144H229zm0 0" clip-rule="nonzero"/></clipPath><clipPath id="D"><path d="M439.215 478.484c-4.969.285-10.445-1.184-16.199-.844-5.25.336-10.895-1.242-16.371-.793-5.699.453-11.289.059-16.988.285s-11.234 2.594-16.934 2.426-11.516 1.582-17.219.848c-8.07-1.016-16.027-.395-24.215-.68s-16.199-1.637-24.27-1.973c-3.84-.172-7.34-3.445-11.176-3.898-6.379-.789-13.434 3.785-19.758 2.938s-12.305-4.461-18.684-5.418c-9.031-1.355-19.246-2.598-26.359-8.523-3.273-2.766-.848-7.961.227-12.137.566-2.09.34-4.121 1.297-5.984 2.543-5.023-.281-11.684.961-17.047s6.039-9.934 7.621-15.238c1.637-5.418-1.469-10.328-3.105-15.918-1.637-5.699-1.695-12.078-2.766-17.949-.395-2.09 1.691-4.516 1.691-6.605 0-6.379 3.613-13.262 9.766-12.359 5.645.789 11.008 4.402 16.652 4.57s11.457-1.918 17.102-1.75 11.234 1.922 16.934 2.711c7.789 1.07 15.469 4.176 23.313 5.023s16.258-2.484 23.988-.734c.848.168 1.355 1.637 2.09 1.469 5.871-1.523 11.91-2.203 17.836-2.09s11.855.902 17.727 0c5.137-.789 10.555-.168 15.406-1.637s8.582-6.039 13.379-8.07c5.363-2.316 12.363-.172 17.895-2.035s9.652-9.199 15.352-10.328c5.645-1.129 11.965-1.805 17.836-2.031 6.832-.227 13.832 4.176 20.66 3.949l20.488-.73c6.832-.227 13.547-3.559 20.379-3.727l20.488-.789c9.484-.227 19.699 2.766 28.223-2.09.734-.395.848-1.695 1.695-1.977 15.406-4.852 14.957-.055 19.246 11.629 1.129 3.047 3.84 5.871 3.441 9.199-.844 7.734-.73 15.355-.223 23.031s-.793 15.465-.227 23.141c.449 5.984 4.234 11.969 7.563 17.105 2.539 3.895 5.418 7.563 7.453 11.797 3.047 6.379 3.781 12.867-1.02 18.398-4.684 5.477-10.555 9.484-16.367 12.59-5.758 3.047-12.418 6.094-19.926 5.98-7.281-.109-14.395-.395-21.676.059s-14.562.168-21.785.563c-6.832.34-13.773-1.242-20.605-.676-6.375.508-12.699 1.805-19.078 2.539-5.758.68-11.176 4.688-16.988 5.137-5.645.453-11.629-1.016-17.555-1.016-5.59 0-11.402.395-17.387-.227" clip-rule="nonzero"/></clipPath><path id="E" d="M133.223 0h582.398v508.852H133.223zm0 0"/></defs><g clip-path="url(#A)"><g clip-path="url(#B)"><use href="#E" fill="#7c9ecc"/></g></g><g clip-path="url(#C)"><g clip-path="url(#D)"><use href="#E" fill="#7c9ecc"/></g></g></svg>