<svg xmlns="http://www.w3.org/2000/svg" width="1133" zoomAndPan="magnify" viewBox="0 0 849.75 510" height="680" preserveAspectRatio="xMidYMid meet" xmlns:v="https://vecta.io/nano"><defs><clipPath id="A"><path d="M152.645 24H697v461H152.645zm0 0" clip-rule="nonzero"/></clipPath><clipPath id="B"><path d="M554.09 392.828c-10.68-6.09-21.262-11.551-32.953-10.969-7.199.387-14.207 4.832-21.359 7.199-9.129 3.043-12.512 10.871-16.09 18.648-6.52 14.402-12.176 28.895-7.102 44.215-4.879 3.188-8.602 6.133-12.805 8.262-3.43 1.738-7.344 3.621-11.016 3.621-18.168.051-36.336-.625-54.453-.82-15.414-.191-30.828.051-46.242-.191-10.918-.195-21.84-1.691-32.711-1.211l-80.789 4.445c-21.645.969-43.34 1.258-63.395-8.937-11.934-6.039-19.566-15.656-22.031-29.039-1.645-9.082 5.848-21.211 12.32-26.672 10.246-8.695 21.598-4.785 32.23-6.57 26.332-4.445 52.809-1.836 79.336.484 17.734 1.543 35.707.77 53.539.383 19.23-.434 38.461-1.156 57.594-2.754 11.355-.918 22.566-3.719 33.824-5.844l32.082-6.426c6.379-1.355 9.035-7.297 12.949-11.453 11.5-12.223 16.188-26.719 12.223-44.551L462.09 336.73c-15.801 10.582-31.066 22.227-47.832 31.117-11.02 5.844-23.969 8.938-36.434 10.918-16.187 2.563-32.762 2.996-49.187 3.867-3.867.191-8.406-.582-11.598-2.609-9.953-6.187-10.098-17.59.195-24.207 14.688-9.422 29.859-18.266 45.371-26.285 15.652-8.117 30.199-17.59 43.387-29.281 13.094-11.645 26.914-22.469 39.672-34.453 13.191-12.367 26.141-25.125 37.832-38.895 6.715-7.926 11.691-17.395 20.922-22.855 8.07-4.781 14.109-10.582 15.414-20.484 1.402-10.391-1.258-19.57-7.152-27.883-7.055-10-13.82-20.293-21.938-29.375-9.613-10.777-22.129-17.734-35.898-22.227-20.922-6.812-41.941-12.852-64.262-12.613-6.574.051-13.242-.48-19.668-1.738-8.648-1.691-14.93-8.02-17.539-15.559-4.59-13.434-5.266-27.25 4.977-39.281 7.297-8.555 17.637-9.762 27.734-10.582 7.152-.582 14.449.676 21.695 1.109 1.738.098 3.625.629 5.121.098 9.086-3.238 17.395-.191 25.609 3.141 20.922 8.406 42.23 16.09 62.57 25.754 11.598 5.508 21.215 14.98 32.375 21.648 16.523 9.855 28.605 24.301 40.586 38.605 6.477 7.68 10.871 17.25 15.367 26.43 6.617 13.625 12.078 27.781 18.746 41.359 7.684 15.559 12.805 31.988 15.559 48.898 2.125 13.047 1.789 26.43 2.805 39.668 2.512 33.484-5.512 65.52-13.145 97.605-1.691 7.199-.82 8.742 6.57 10.676l41.941 11.402c14.301 4.109 22.949 14.109 29.57 27.156 8.793 17.25 5.074 33.727-3.141 48.852-6.234 11.402-18.023 17.008-31.84 16.137-4.207-.289-8.844-1.691-12.516-.387-10.871 3.914-21.887 1.594-32.664 1.352-22.418-.434-44.934-1.691-66.148-10.434-13.187-5.461-26.137-11.5-39.523-16.383-14.109-5.121-17.926-20.969-16.234-32.953 3.719-26.187 21.453-34.109 50.156-31.648 4.25.387 8.504 1.113 12.754 1.598.387.047.82-.484 1.789-1.113" clip-rule="nonzero"/></clipPath><clipPath id="C"><path d="M357 115h129v127H357zm0 0" clip-rule="nonzero"/></clipPath><clipPath id="D"><path d="M485.234 182.402c1.645 35.27-29.715 57.691-62.328 58.754-18.266.578-35.613-6.523-48.367-20.488-10.051-11.016-17.059-24.109-17.297-39.621-.68-38.652 27.105-66.387 70.059-65.953 32.809.34 59.527 33.195 57.984 67.309" clip-rule="nonzero"/></clipPath><path id="E" d="M128.793 0h592.336v508.852H128.793zm0 0"/></defs><g clip-path="url(#A)"><g clip-path="url(#B)"><use href="#E" fill="#fad275"/></g></g><g clip-path="url(#C)"><g clip-path="url(#D)"><use href="#E" fill="#fad275"/></g></g></svg>