<svg xmlns="http://www.w3.org/2000/svg" width="200" height="200" viewBox="0 0 1024 1024" xmlns:v="https://vecta.io/nano"><path d="M378.562 315.123a23.39 23.39 0 0 1-3.9-.336l3.569-20.887c.222.062.739.139 1.712-1.562 4.842-8.498 2.55-32.216-17.753-56.14-8.939-10.527-12.513-22.78-10.34-35.438 5.747-33.483 49.352-59.74 54.308-62.626l10.666 18.306c-11.096 6.486-40.652 27.746-44.097 47.925-1.117 6.539.668 12.296 5.612 18.125 27.048 31.863 29.334 63.986 20.008 80.337-4.495 7.884-11.705 12.296-19.785 12.296zm263.538 5.794a23.375 23.375 0 0 1-3.895-.336l3.569-20.887c.585-.041 1.873-1.056 2.856-4.361 2.545-8.54 1.427-29.387-18.906-53.345-8.933-10.527-12.508-22.78-10.335-35.438 5.747-33.483 49.352-59.74 54.308-62.626l10.666 18.306c-11.096 6.486-40.652 27.746-44.092 47.925-1.117 6.539.668 12.296 5.612 18.125 27.048 31.875 29.329 63.992 20.003 80.347-4.495 7.882-11.706 12.29-19.786 12.29zm-148.192-5.892a16.98 16.98 0 0 1-2.835-.238l3.569-20.887c-.807-.139-1.262-.01-1.278-.005 4.671-1.319 18.565-17.763 23.143-42.256 3.259-17.427 2.162-41.951-21.575-59.823-13.469-10.144-15.88-21.989-15.533-30.146 1.417-33.229 51.764-65.745 57.499-69.345l11.261 17.944c-18.027 11.339-46.891 35.568-47.594 52.311-.124 2.897.481 7.32 7.113 12.311 37.476 28.222 36.239 72.087 22.584 103.733-8.039 18.633-22.118 36.4-36.353 36.4z" fill="#4d5152"/><path d="M171.671 721.708S282.96 870.094 396.31 911.312c0 0 138.081 18.549 245.249 0 0 0 84.497-20.609 208.153-189.604H171.671z" fill="#ffb957"/><path d="M529.563 930.171c-71.222 0-130.916-7.857-134.665-8.359l-2.209-.543C277.7 879.453 167.817 734.225 163.197 728.064l-12.715-16.95h720.105l-12.327 16.847c-124.505 170.161-210.585 192.765-214.19 193.644-37.093 6.43-77.373 8.566-114.508 8.566zm-130.718-29.216c13.335 1.691 141.675 17.086 240.913-.083.046-.046 76.602-21.131 188.834-168.572H193.654c32.547 39.515 118.946 136.751 205.191 168.655z" fill="#4d5152"/><path d="M99.539 607.496a411.152 213.136 0 1 0 822.305 0 411.152 213.136 0 1 0-822.305 0z" fill="#f9f0dd"/><g fill="#4d5152"><path d="M510.692 826.811c-230.122 0-417.338-98.384-417.338-219.316S280.57 388.178 510.692 388.178c230.117 0 417.333 98.384 417.333 219.316S740.81 826.811 510.692 826.811zm0-426.271c-223.305 0-404.974 92.84-404.974 206.954s181.67 206.954 404.974 206.954 404.969-92.84 404.969-206.954S733.993 400.54 510.692 400.54zm0 318.462c-181.272 0-323.267-59.843-323.267-136.238S329.42 446.526 510.692 446.526s323.262 59.843 323.262 136.238-141.995 136.238-323.262 136.238zm0-256.587c-166.618 0-307.377 55.115-307.377 120.347S344.075 703.11 510.692 703.11c166.612 0 307.371-55.115 307.371-120.347S677.305 462.415 510.692 462.415z"/><path d="M510.692 743.732c-181.272 0-323.267-59.843-323.267-136.238 0-76.39 141.995-136.233 323.267-136.233 181.267 0 323.262 59.843 323.262 136.233 0 76.396-141.995 136.238-323.262 136.238zm0-256.581c-166.618 0-307.377 55.11-307.377 120.342s140.759 120.347 307.377 120.347c166.612 0 307.371-55.115 307.371-120.347S677.305 487.151 510.692 487.151z"/></g><path d="M404.163 544.073c1.545 17.065-3.14 26.07-18.621 33.27-8.859 2.578-20.505-2.228-30.262-11.589L254.107 368.02c-5.197-11.175 3.14-26.07 18.621-33.27s32.244-3.976 37.44 7.199l93.995 202.124z" fill="#fff"/><path d="M380.471 588.63c-10.578 0-22.238-5.359-32.526-15.228l-1.283-1.231-101.985-199.324c-4.107-8.804-3.409-18.927 1.744-28.124 4.593-8.215 12.352-15.167 21.839-19.579 21.115-9.818 43.73-4.386 51.515 12.337l94.769 203.798.171 1.836c1.971 21.751-5.415 34.859-24.699 43.834l-1.51.569a28.865 28.865 0 0 1-8.034 1.112zm-16.609-29.366c7.303 6.544 14.23 8.773 18.109 8.049 9.859-4.764 12.518-9.306 11.783-20.504l-93.191-200.39c-2.327-5.022-12.823-6.952-23.37-2.064-5.405 2.514-9.879 6.42-12.286 10.713-1.051 1.873-2.597 5.468-1.195 8.483l100.149 195.714z" fill="#4d5152"/><g fill="#67dde0"><use href="#B"/><use href="#B" x="128.292" y="78.83"/><use href="#B" y="119.019"/><use href="#B" x="310.683" y="165.389"/><use href="#B" x="327.685"/></g><g fill="#ffb957"><use href="#B" x="217.942" y="78.83"/><use href="#B" x="71.102" y="51.008"/><use href="#B" x="54.099" y="165.389"/><use href="#B" x="361.691" y="119.019"/><use href="#B" x="344.688" y="119.019"/></g><g fill="#282828"><use href="#B" x="293.681" y="78.83"/><use href="#B" x="162.297" y="132.93"/><use href="#B" x="-137.566" y="64.92"/><use href="#B" x="-54.108" y="64.052"/><use href="#B" x="-17.003" y="78.83"/></g><use href="#B" x="-31.875" y="68.784" fill="#ffb957"/><g fill="#282828"><use href="#B" y="51.008"/><path d="M418.284 560.138a13.912 17.003 57.865 1 0 28.796-18.088 13.912 17.003 57.865 1 0-28.796 18.088z"/></g><path d="M335.49 633.548a8.88 10.854 57.865 1 0 18.383-11.547 8.88 10.854 57.865 1 0-18.383 11.547z" fill="#67dde0"/><g fill="#282828"><use href="#B" x="-154.569" y="92.742"/><use href="#B" x="88.104" y="-27.822"/><use href="#B" x="200.939"/></g><defs ><path id="B" d="M390.128 513.981a17.003 13.912 0 1 0 34.005 0 17.003 13.912 0 1 0-34.005 0z"/></defs></svg>