<svg xmlns="http://www.w3.org/2000/svg" width="1133" zoomAndPan="magnify" viewBox="0 0 849.75 510" height="680" preserveAspectRatio="xMidYMid meet" xmlns:v="https://vecta.io/nano"><style><![CDATA[.B{clip-rule:nonzero}.C{fill:#7c9ecc}]]></style><defs><clipPath id="A"><path d="M278.113 180H544v308H278.113zm0 0" class="B"/></clipPath><clipPath id="B"><path d="M354.23 206.941c18.492-2.672 36.902-6.234 55.48-7.801 18.789-1.57 34.777-10.309 51.617-16.926 6.828-2.672 11.113-1.949 14.59 4.328 4.496 8.141 10.223 14.293 19.133 18.195 12.086 5.344 14.336 13.105 11.367 26.254-2.121 9.418-2.039 19.301-4.031 28.758-3.734 17.941-6.531 36.348-12.809 53.441-5.855 15.949-19.555 26.129-35.586 32.406-1.145.465-2.59.426-3.859.211-10.52-1.652-15.27 2.504-14.848 13.066.469 12.598 10.902 26.34 27.188 29.223 12.387 2.164 25.027 3.223 37.242 6.109 13.953 3.309 26.383 10.262 30.922 24.895 5.172 16.672 8.863 33.805 12.895 50.816 1.609 6.828-3.395 12.809-10.055 15.227-12.555 4.539-25.109 1.398-37.664 1.313-12.809-.082-25.66.512-38.512.68-5.047.086-10.137-.086-15.187-.168l-41.863-.469c-9.625.086-19.254 1.273-28.883 1.102-11.918-.211-23.797-1.609-35.715-2.035-5.512-.168-11.07 1.145-16.625 1.02-10.562-.297-21.293-.254-31.641-2.078-6.023-1.062-9.801-7.508-8.441-13.531 4.242-18.664 8.441-37.496 14.719-55.562 4.324-12.43 16.328-18.41 28.672-21.293 12.68-2.926 25.789-4.199 38.641-6.363 17.727-2.969 29.816-22.309 25.277-35.711-.68-2.082-2.629-4.117-4.539-5.305-9.797-6.148-20.656-10.941-29.391-18.281-7.254-6.062-13.617-14.293-17.648-22.859-11.109-23.879-17.43-49.074-15.266-75.797.93-11.496 13.527-23.539 25.66-23.965 2.926-.125 5.895 0 8.82 0 .043.383.129.766.172 1.145" class="B"/></clipPath><clipPath id="C"><path d="M264 148h299v235H264zm0 0" class="B"/></clipPath><clipPath id="D"><path d="M562.488 279.133c0 15.863-.977 31.938-2.246 47.719-1.23 15.566-3.055 31.176-14.973 43.77-10.773 11.41-23.285 11.836-37.07 9.715-3.691-.551-7.637-1.527-11.113-.762-11.156 2.457-20.996-1.57-30.453-5.941-8.527-3.941-8.062-15.863-.215-20.91 18.324-11.746 30.582-28.461 36.691-49.074 8.313-28.121 13.402-56.922 12.723-86.484-.125-6.234-.977-11.027-7.93-13.445-12.344-4.242-20.617-13.273-26.934-24.559-5.262-9.371-19.426-11.449-28.121-5.258-3.27 2.332-7.211 3.859-11.031 5.133-8.734 2.926-17.43 6.105-26.379 8.059-10.141 2.203-20.488 3.605-30.836 4.707-16.457 1.738-33 2.461-49.414 4.539-8.441 1.059-15.184 6.105-19.68 13.785-8.656 14.676-7.723 30.156-6.109 46.484 1.992 20.191 7.719 39.277 14.719 57.813 3.18 8.441 11.535 15.059 18.066 22.016 4.965 5.258 11.496 9.074 15.949 14.633 6.152 7.676 5.641 19.469-.805 26.68-1.867 2.078-6.277 2.121-9.629 2.5-3.18.383-6.488-.082-9.715.086-15.902.848-31.809 2.715-47.629 2.207-5.262-.172-12.004-3.523-14.719-10.816-6.195-16.629-9.246-33.551-10.73-51.367-2.801-33.676 4.324-65.996 10.094-98.527 2.504-14.211 8.227-27.867 12.426-41.781 1.867-6.191 6.406-8.398 11.664-5.766 10.477 5.258 20.617.039 30.922.254 10.773.168 19.977-4.836 29.184-10.012 8.313-4.664 17.305-3.687 26.297-1.355 7.465 1.949 15.141 3.477 22.816 4.281 2.418.258 5.645-1.863 7.637-3.773 3.309-3.18 5.852-7.168 8.863-10.645 4.539-5.176 13.996-6.535 21.676-2.418 7.59 4.07 14.082 8.566 24.047 7.293 6.152-.762 13.363 4.711 19.684 8.23 8.438 4.707 15.648 3.945 23.156-2.207 4.965-4.07 10.691-7.379 16.414-10.391 4.496-2.375 8.102-.68 11.156 3.73 9.543 13.742 15.145 28.973 16.543 45.43 2.164 25.406 3.434 50.938 5.09 76.387-.637.043.637 0 0 .043" class="B"/></clipPath><clipPath id="E"><path d="M289.777 21H454v147H289.777zm0 0" class="B"/></clipPath><clipPath id="F"><path d="M397.156 21.207c12.852 1.738 27.059 1.656 39.191 9.586 8.227 5.387 13.785 12.766 14.758 23.031.172 1.824 1.781 3.52 2.078 5.387.383 2.547 1.23 6.152-.082 7.594-7.383 8.184-11.453 19.34-22.734 24.09-7.211 3.012-9.078 8.738-7.383 16.797 3.523 16.797-2.926 31.473-12.301 44.875-3.984 5.684-14.078 5.855-22.012 1.656-2.332-1.23-4.922-2.293-6.785-4.074-7.719-7.293-14.594-3.816-21.93.891-7.973 5.133-15.949 10.605-24.645 14.168-12.809 5.258-25.109 1.824-35.246-7.082-5.258-4.625-6.574-11.496-6.023-18.664.297-3.52.254-7.34-.848-10.605-8.566-25.617.34-34.227 23.242-42.965 8.316-3.18 12.133-6.66 14.043-15.398 6.656-30.664 23.496-43.855 60.016-48.777 1.91-.254 3.859-.297 6.66-.508" class="B"/></clipPath><clipPath id="G"><path d="M433.082 77H549v79H433.082zm0 0" class="B"/></clipPath><clipPath id="H"><path d="M548.363 109.008c.383 4.281-2.543 9.203-8.437 13.191-2.547 1.695-4.711 4.961-5.602 7.93-2.672 9.164-8.398 15.738-16.031 20.867-8.992 6.066-20.148 5.602-27.996-1.949-3.605-3.437-6.613-3.773-10.898-2.375-8.992 2.969-18.07 2.758-26.766-1.02-2.926-1.273-5.512-3.648-7.887-5.895-11.156-10.434-14.336-26.297-6.914-39.191 2.332-4.031 7.422-6.488 11.41-9.457 4.07-3.055 8.141-6.152 12.512-8.781 12.004-7.297 24.305-6.32 36.816-1.062 2.672 1.105 6.063 1.402 8.949.977 10.094-1.57 19.723-1.273 29.055 3.691 8.313 4.41 11.621 11.324 11.75 23.031" class="B"/></clipPath><clipPath id="I"><path d="M232 152h41v46h-41zm0 0" class="B"/></clipPath><clipPath id="J"><path d="M272.453 166.648c-.551 12.344-7.844 21.422-19.211 24.262-1.699.426-3.012 2.164-4.668 2.844-3.309 1.355-7.168 3.941-10.051 3.18-4.793-1.273-6.488-5.855-5.598-11.113 1.145-6.742 1.906-13.574 2.84-20.359 1.23-8.82 9.797-13.742 22.184-12.684 9.332.809 14.844 6.109 14.504 13.914" class="B"/></clipPath><clipPath id="K"><path d="M566.387 129H593v32h-26.613zm0 0" class="B"/></clipPath><clipPath id="L"><path d="M592.859 142.176c-1.527 8.863-5.812 18.703-13.574 17.984-7.297-.68-12.766-7.719-12.641-17.305.086-7.168 6.703-13.957 13.066-13.531 5.512.383 13.23 7.887 13.148 12.809" class="B"/></clipPath><clipPath id="M"><path d="M473 44h27v27h-27zm0 0" class="B"/></clipPath><clipPath id="N"><path d="M486.48 44.492c6.871-.125 13.32 5.133 13.402 10.859.086 8.27-5.172 14.719-12.129 14.844-7.465.129-14.293-6.062-14.719-13.402-.297-5.176 7.34-12.172 13.445-12.301" class="B"/></clipPath><clipPath id="O"><path d="M589 334h28v24.258h-28zm0 0" class="B"/></clipPath><clipPath id="P"><path d="M599.813 337.879l7.465-2.504c4.117-1.398 7.848-1.527 9.332 3.648 1.402 4.922-3.055 14.293-8.523 16.586-5.559 2.375-12.047 4.832-16.16-2.121-1.953-3.309-3.562-8.273-2.461-11.453.977-2.844 5.938-4.328 9.16-6.406.426.766.809 1.527 1.23 2.293" class="B"/></clipPath><path id="Q" d="M211.461 0h426.578v508.227H211.461zm0 0"/></defs><g clip-path="url(#A)"><g clip-path="url(#B)"><use href="#Q" fill="#fad275"/></g></g><g clip-path="url(#C)"><g clip-path="url(#D)"><use href="#Q" fill="#fad275"/></g></g><g clip-path="url(#E)" class="C"><g clip-path="url(#F)"><use href="#Q"/></g></g><g clip-path="url(#G)" class="C"><g clip-path="url(#H)"><use href="#Q"/></g></g><g clip-path="url(#I)" class="C"><g clip-path="url(#J)"><use href="#Q"/></g></g><g clip-path="url(#K)" class="C"><g clip-path="url(#L)"><use href="#Q"/></g></g><g clip-path="url(#M)" class="C"><g clip-path="url(#N)"><use href="#Q"/></g></g><g clip-path="url(#O)" class="C"><g clip-path="url(#P)"><use href="#Q"/></g></g></svg>