<svg xmlns="http://www.w3.org/2000/svg" width="1133" zoomAndPan="magnify" viewBox="0 0 849.75 510" height="680" preserveAspectRatio="xMidYMid meet" xmlns:v="https://vecta.io/nano"><defs><clipPath id="A"><path d="M118 0h612.891v509H118zm0 0" clip-rule="nonzero"/></clipPath><clipPath id="B"><path d="M405.031 149.313c.98-1.957 1.73-.754 2.258-2.637 2.41-8.805 7.676-16.18 11.363-24.082 3.84-8.129 7.379-16.027 12.344-23.406s8.879-15.578 14.75-22.273c5.797-6.625 13.473-11.664 19.945-17.836 6.094-5.871 11.211-12.793 17.836-17.836s13.094-10.84 20.316-15.129 14.676-8.504 22.352-12.039c7.527-3.465 15.43-7 23.406-9.711 7.602-2.559 16.406-.301 24.16-1.504 7.824-1.203 15.5-2.184 23.402-2.105s15.879-1.43 23.781-.301c9.406 1.352 17.914 5.793 26.039 10.156s14.527 11.441 22.051 17.012c5.871 4.363 15.352 5.191 19.945 10.684s6.168 13.773 9.48 20.32c4.891 9.707 10.688 18.891 15.578 28.523 6.246 12.117 3.539 26.492 4.891 39.813.906 8.953 3.84 17.684 4.516 26.641s6.773 17.684 7.301 26.641-1.43 18.363-1.879 27.316-3.687 17.836-4.895 26.793 1.582 18.664-.227 27.543-8.652 16.559-10.91 25.363c-1.883 7.449-.453 15.953-2.711 23.328-3.008 10.012-10.309 18.363-14.598 27.621-4.367 9.406-11.215 16.859-17.086 25.363-5.793 8.352-9.48 18.285-17.082 25.66-5.945 5.797-12.117 11.363-17.16 17.836s-10.684 12.645-15.352 19.492c-.902 1.281-3.535 2.559-3.988 3.988-2.184 7.375-6.32 11.289-11.215 16.332s-9.18 10.988-14.523 15.652c-8.504 7.453-17.535 14.449-25.812 22.203-6.473 6.094-13.02 10.91-20.695 14.148-7.754 3.309-15.957 4.664-24.535 5.867-9.707 1.281-19.34 4.066-29.125 4.141s-19.039-5.191-28.824-6.473-19.867.98-29.574-.375-19.266-4.367-29.051-4.969c-10.687-.676-22.051 2.559-32.211-.223s-19.941-7.68-29.949-10.988c-6.398-2.109-11.742-7.375-18.141-9.258-6.922-2.031-12.715-6.621-19.414-9.406s-14.902-1.809-21.223-5.344c-8.129-4.441-17.008-7.227-25.512-10.914-7.375-3.234-11.891-11.363-18.59-15.652s-16.555-4.062-22.879-9.18c-6.922-5.645-10.836-14.902-17.383-20.922s-11.363-13.848-17.687-20.094-13.621-11.668-19.941-17.988c-4.969-4.965-14.223-6.32-18.289-11.891s-4.816-13.695-7.824-20.02c-4.668-9.781-7.527-20.242-11.066-30.402S119.281 285 118.68 273.938c-.527-9.184 6.996-18.437 8.203-27.543 1.504-10.988-2.109-23.031.602-33.719s7.297-21.145 10.836-31.68c3.234-9.484 7.223-18.816 12.039-27.168 4.969-8.508 10.914-16.711 17.387-24.086 6.398-7.297 16.105-11.363 23.855-17.535 5.57-4.512 9.332-11.738 15.352-15.652s12.27-7.902 18.516-11.437c8.578-4.969 18.363-7.074 27.316-8.957 9.258-2.031 18.891-2.633 28.449-1.883 9.18.754 19.641-.449 28.973 2.484 7.074 2.258 14 6.246 20.848 9.332s13.695 6.547 20.242 10.012c9.559 5.039 14.754 15.879 22.129 23.402s13.922 15.578 20.316 24.008c2.711 3.539 5.797 4.063 11.289 5.945" clip-rule="nonzero"/></clipPath></defs><g clip-path="url(#A)"><g clip-path="url(#B)"><path fill="#fad275" d="M118.68 0h612.211v508.852H118.68zm0 0"/></g></g></svg>