<svg xmlns="http://www.w3.org/2000/svg" width="1133" zoomAndPan="magnify" viewBox="0 0 849.75 510" height="680" preserveAspectRatio="xMidYMid meet" xmlns:v="https://vecta.io/nano"><style><![CDATA[.B{clip-rule:nonzero}]]></style><defs><clipPath id="A"><path d="M353.387 80H482v80H353.387zm0 0" class="B"/></clipPath><clipPath id="B"><path d="M478.652 101.746c2.07 3.469 3.805 7.23 1.945 11.121-2.285 4.781-7.57 6.895-12.391 7.996-12.309 2.789-26.219.336-38.062-3.512-7.187-2.367-14.504 6.723-10.148 13.152s12.52 26.852-.379 28.883c-6.473 1.016-13.828-.805-20.09-2.156-7.484-1.609-14.883-3.723-22.074-6.387-6.68-2.453-13.277-5.371-19.41-8.965-1.352-.805-2.707-1.648-3.805-2.832-.043-.043-.297-.34-.465-.594.168-.043.254-.125.422-.211 1.648-.805 3.215-1.691 4.863-2.496 13.66-6.852 26.98-14.504 39.707-22.961 14.086-9.305 27.574-19.582 40.387-30.574 12.984-7.781 32.859 8.246 39.457 19.492" class="B"/></clipPath><clipPath id="C"><path d="M225.68 21H620v223H225.68zm0 0" class="B"/></clipPath><clipPath id="D"><path d="M477.934 136.719c-10.785 3.891-23.176 3.977-35.016 2.117 3.383 14.883.422 31.293-15.309 36.918-8.289 2.957-17.508 1.48-25.926.082-9.555-1.605-19.027-4.059-28.164-7.441-13.871-5.031-44.062-15.352-37.383-35.566 3.004-9.008 13.363-12.219 20.934-16.238 8.629-4.523 17.043-9.387 25.246-14.504 16.027-10.109 31.293-21.398 45.629-33.789.086-.086.215-.168.297-.254.465-.379.973-.805 1.523-1.141 23.215-14.801 56.285 7.863 66.309 29.348 7.949 17.086-.848 34.168-18.102 40.469m134.184-20.254c-20.043-13.789-37-25.035-56.961-36.285-42.418-23.766-90.371-49.687-127.758-57.047-8.371-1.648-17.039-2.836-25.414-1.227-9.43 1.816-17.805 6.977-25.922 12.051-48.125 29.688-95.66 56.414-145.602 82.336-6.004 3.129-6.258 11.59-.422 15.055 19.324 11.336 39.414 22.117 58.145 33.75 14.379 8.965 109.57 72.945 120.652 76.879 11.969 4.27 25.078-.719 36.707-5.922 59.965-26.809 116.887-60.43 169.324-100.012 7.105-5.328 4.48-14.461-2.832-19.496" class="B"/></clipPath><clipPath id="E"><path d="M293.289 277H343v61h-49.711zm0 0" class="B"/></clipPath><clipPath id="F"><path d="M332.246 308.625c4.273 9.219 7.484 18.902 10.109 28.754-17.215-5.031-33.367-13.191-47.027-24.187a8.78 8.78 0 0 0-1.691-1.098c.168-.469.34-.973.465-1.441 2.793-7.695 5.625-15.477 8.797-22.961 1.395-3.215 5.242-11.504 9.133-10.234 3.047 1.016 7.996 9.727 10.152 13.023 3.805 5.797 7.102 11.887 10.063 18.188" class="B"/></clipPath><clipPath id="G"><path d="M205.02 159h206.586v327H205.02zm0 0" class="B"/></clipPath><clipPath id="H"><path d="M360.539 403.141c-5.16 0-8.543-4.145-8.965-8.965-1.102-12.434-2.621-24.824-4.863-37.09-.129 0-.211 0-.297-.043-21.398-4.82-41.23-14.336-58.738-27.316-2.961 9.051-5.711 18.141-8.246 27.316-3.09 11.125-20.383 6.344-17.297-4.777 5.793-20.805 12.559-41.359 20.426-61.488 3.172-8.035 5.918-16.957 11.969-23.387 5.664-6.004 14.801-9.555 22.918-6.934 7.949 2.578 12.984 10.531 17.551 17 4.609 6.555 8.668 13.492 12.094 20.723 14.336 30.023 19.496 63.137 22.457 95.996.422 4.82-4.484 8.965-8.965 8.965m47.871-91.895c-.973-8.711-1.945-17.508-5.16-25.668-9.641-24.527-53.664-50.156-77.262-61.871-37.469-18.562-73.457-38.398-106.949-62.926-5.707-4.187-13.703-.082-13.617 6.98l1.777 138.707c.211 13.32.465 27.063 5.836 39.199 6.215 14.125 18.563 24.527 30.574 34.172 45.883 36.918 93.754 71.383 143.359 103.098 8.586 5.5 19.961-.125 20.891-10.273 3.637-41.316 4.652-124.797.508-161.461" class="B"/></clipPath><clipPath id="I"><path d="M436 174h208.477v314H436zm0 0" class="B"/></clipPath><clipPath id="J"><path d="M511.508 335.141c-.336 7.781-1.227 15.898.848 23.555 1.523 5.582 4.695 11.332 10.785 12.727 6.637 1.609 13.656-1.098 19.324-4.398 11.461-6.594 20.297-17.211 24.656-29.727 3.805-10.871 21.145-6.133 17.293 4.777-7.273 20.805-23.766 39.457-45.375 45.883-10.105 3.004-21.609 2.539-30.406-3.805-7.863-5.75-12.684-14.887-14.379-24.359-1.984-11.332-.379-22.707-.504-34.125-.129-11.082.125-21.527 4.902-31.762 7.57-16.195 24.656-27.273 41.656-31.379 10.023-2.41 20.934-3.086 30.531 1.188 9.219 4.145 15.773 13.148 15.691 23.426-.129 11.586-18.059 11.586-17.934 0 .043-6.977-8.285-8.668-13.785-8.582-6.891.125-14.039 1.902-20.215 4.945-10.656 5.203-19.918 13.785-22.285 25.84-1.648 8.332-.336 17.297-.676 25.754m119.168-160.445c-3.211.211-6.004 1.988-8.754 3.723-49.73 31.887-102.254 59.457-156.762 82.293-15.859 6.641-25.586 14.211-26.008 20.34-4.695 64.406-4.273 126.105.93 190.473.422 5.074 1.141 10.781 5.16 13.91 4.82 3.809 11.797 2.156 17.547.086 28.926-10.574 54.766-27.828 80.352-44.953l53.535-35.777c12.137-8.078 24.824-16.832 31.168-29.898 4.652-9.555 5.457-20.508 6.176-31.125l9.766-144.246c.723-10.656-2.449-25.543-13.066-24.824" class="B"/></clipPath><path id="K" d="M184.363 0h480.773v508.945H184.363zm0 0"/></defs><g clip-path="url(#A)"><g clip-path="url(#B)"><use href="#K" fill="#fad275"/></g></g><g clip-path="url(#C)"><g clip-path="url(#D)"><use href="#K" fill="#fad275"/></g></g><g clip-path="url(#E)"><g clip-path="url(#F)"><use href="#K" fill="#7c9ecc"/></g></g><g clip-path="url(#G)"><g clip-path="url(#H)"><use href="#K" fill="#7c9ecc"/></g></g><g clip-path="url(#I)"><g clip-path="url(#J)"><use href="#K" fill="#f5ac48"/></g></g></svg>