<svg xmlns="http://www.w3.org/2000/svg" width="1133" zoomAndPan="magnify" viewBox="0 0 849.75 510" height="680" preserveAspectRatio="xMidYMid meet" xmlns:v="https://vecta.io/nano"><defs><clipPath id="A"><path d="M186.227 16H663v476.953H186.227zm0 0" clip-rule="nonzero"/></clipPath><clipPath id="B"><path d="M569.664 492.242H279.836c-51.301 0-92.898-41.602-92.898-92.902V109.512c0-51.301 41.598-92.898 92.898-92.898h289.828c51.301 0 92.898 41.598 92.898 92.898V399.34c0 51.301-41.598 92.902-92.898 92.902" clip-rule="nonzero"/></clipPath><clipPath id="C"><path d="M243 103.359h364v302.133H243zm0 0" clip-rule="nonzero"/></clipPath><clipPath id="D"><path d="M604.285 192.047c-4.984-28.211-29.336-43.395-56.848-31.301-32.562 14.32-59.078 54.691-80.871 55.023-27.016.398-30.504-55.422-36.184-70.34-9.27-24.422-31.863-38.773-51.203-41.035-23.125-2.691-38.375 4.387-52.926 16.281h-.035c-73.66 53.293-102.336 149.418-69.941 234.375 18.906 46.98 73.164 61.668 113.07 40.504 35.25-18.707 52.895-65.59 36.246-101.207-17.211-36.879-21.992-45.918-13.422-51.434 14.621-9.402 19.172 22.859 60.902 29.305 43.891 6.777 76.785-33.559 89.543-30.102 12.363 3.355 8.141 30.137-13.953 44.754-11.398 7.543-12.027 15.98-8.906 22.297 2.492 5.082 8.672 10 17.977 7.273 49.84-14.484 76.652-73.43 66.551-124.363" clip-rule="nonzero"/></clipPath><path id="E" d="M170.324 0h508.852v508.852H170.324zm0 0"/></defs><g clip-path="url(#A)"><g clip-path="url(#B)"><use href="#E" fill="#d4a574"/></g></g><g clip-path="url(#C)"><g clip-path="url(#D)"><use href="#E" fill="#fff"/></g></g></svg>