<svg xmlns="http://www.w3.org/2000/svg" width="1133" zoomAndPan="magnify" viewBox="0 0 849.75 510" height="680" preserveAspectRatio="xMidYMid meet" xmlns:v="https://vecta.io/nano"><defs><clipPath id="A"><path d="M220 99.094h409v383.77H220zm0 0" clip-rule="nonzero"/></clipPath><clipPath id="B"><path d="M385.563 267.266c-1.539-6.754-8.348-9.785-14.09-12.656-4.574-2.234-8.082-6.223-12.07-9.25s-9.625-4.734-12.871-8.617c-1.543-1.859-2.977-3.191-4.891-4.68-3.723-2.871-7.391-2.391-7.5 2.34-.051 2.289 1.648 4.254 2.715 6.277 3.402 6.539 6.063 13.293 11.164 18.078s11.809 7.551 18.402 10.797c2.445 1.223 4.68 3.508 7.391 4.039 4.359.906 10.156-1.543 11.75-6.328m-24.992 44.297c-4.094-7.496-11.484-12.711-18.879-16.113-4.52-2.074-7.922-6.008-11.645-9.094s-9.199-4.836-12.23-8.719c-1.488-1.914-3.086-3.352-4.84-5s-2.125-2.871-4.094-1.969c-1.809.801-1.437 2.129-1.277 3.938.266 3.082-1.539 6.699-.371 9.52 2.395 5.637 6.699 9.891 10.477 14.305s7.18 9.516 12.391 12.762c4.465 2.766 9.41 3.031 14.09 3.242 4.414.215 11.488.16 16.379-2.766m145.332 59.93c6.965-.637 11.805-4.359 16.59-5.211 6.063-1.062 12.445-.691 18.402-2.125s10.953-5.691 16.695-7.977c5.637-2.234 10.637-4.895 15.902-8.297 5.848-3.773 12.121-6.008 16.43-10.742 4.52-4.945 7.074-10.902 10.105-16.805 2.922-5.742 7.016-11.164 8.668-17.812 1.434-5.848.211-11.645-.801-17.176s-1.648-11.488-5.051-16.484c-3.242-4.785-8.348-8.031-12.551-11.914s-7.23-9.781-12.121-12.812c-4.574-2.82-11.008-2.449-15.902-4.734s-9.254-5.797-14.25-7.762c-5.957-2.395-11.859-5.105-17.867-7.34l-18.187-6.488c-6.594-2.125-13.668-3.137-20.207-5.371s-12.391-6.594-18.879-9.145-13.719-3.297-19.992-6.328c-6.062-2.926-13.082-4.043-19.09-7.074s-10.16-9.625-16.062-12.922-12.973-4.465-18.719-8.082c-5.637-3.512-11.75-6.754-16.855-10.902s-7.605-11.273-12.125-16.113c-3.508-3.723-7.977-6.484-11.91-9.57s-8.137-5.957-12.18-8.988c-3.453-2.605-7.496-3.297-11.805-3.828-5.422-.691-10.793-.902-16.164-.477s-10.742 3.563-16.168 3.563c-2.605 0-6.219-2.074-8.398-.586-5.746 3.934-11.914 7.977-16.113 13.188s-4.574 12.762-6.594 19.621c-2.074 7.074-7.125 13.457-8.402 20.633s1.859 14.996 1.168 22.336c-.477 4.945-.051 9.41.426 14.199s-1.434 9.996-.316 14.781c1.383 5.902 6.805 9.414 10.527 14.094 6.383 7.922 14.359 10.422 21.109 3.031 3.566-3.883 5.957-8.668 8.512-13.191s5.527-8.984 6.75-14.195c1.598-6.754 3.512-13.562 4.789-20.422.902-4.785 1.434-9.676 2.285-14.465s.746-9.781 1.754-14.57c1.066-5.156 4.895-8.348 8.457-12.387 6.434-7.395 13.984-13.031 22.813-8.668 4.945 2.445 8.563 7.336 12.762 10.688s8.402 6.914 11.805 11.273c3.883 4.945 8.297 8.934 12.871 12.922 4.625 4.039 10.047 6.488 15.367 9.676 5.211 3.141 8.773 9.68 14.57 11.965 5.477 2.234 10.848 4.84 16.324 7.074s11.488 3.242 17.07 5.266c5 1.809 10.902 1.168 15.953 2.871s9.41 5.582 14.465 7.285 10.742 1.543 15.793 3.242c5.688 1.914 10.422 6.012 15.422 9.094s9.41 6.859 13.719 11.113c3.508 3.457 9.52 5.957 11.168 10.742 1.488 4.414-3.086 8.137-5.957 11.699-3.828 4.68-4.043 12.285-7.816 17.016s-10.371 7.125-14.41 11.648-5.746 11.43-10.266 15.527c-5.527 4.996-14.305 7.445-17.602 14.09-2.02 4.043-2.5 8.988-4.148 13.188-1.488 3.883-3.453 7.926-4.254 12.02-1.273 6.434 1.277 8.242 7.871 9.836 8.773 2.129 17.602 6.168 24.516 7.5m-40.414 36.211c-.852 1.703-.426 6.117-1.062 7.711-3.141 8.191-8.512 15.102-14.039 22.016-4.574 5.691-5.902 13.934-10.371 19.676-2.5 3.246-6.113 6.594-9.465 9.039-4.203 3.031-9.84 4.043-14.039 7.074-7.656 5.531-17.121 9.254-26.746 8.934-4.895-.16-9.625-2.445-14.52-2.766s-9.836.746-14.676.215c-5.477-.586-10.582-3.672-15.953-5.105-7.285-1.914-14.836-2.926-21.75-5.797s-12.441-8.828-19.25-11.965c-.957-.426-3.402 2.02-4.309 1.488-5.902-3.723-10.953-8.773-16.695-12.711s-11.113-8.348-16.539-12.762-10.367-9.094-15.156-14.195c-3.773-3.988-7.711-7.711-10.422-12.34s-3.191-10.793-5.848-15.527c-2.555-4.52-6.594-8.348-8.402-13.242-1.969-5.367-5.105-10.848-5.426-16.324s3.988-10.953 4.895-16.59c1.117-6.859.266-14.039 2.605-20.312s4.785-13.082 8.719-18.824c3.723-5.426 9.68-9.52 12.816-15.371 2.34-4.254 1.598-9.57-.637-13.879-.641-1.223-1.543-2.34-2.234-3.562-3.191-5.582-6.539-11.059-9.039-16.91s-4.363-12.016-6.117-18.187-5.637-11.965-6.434-18.398c-.797-6.113 2.129-12.547 2.074-18.559 0-6.168 1.383-11.91 2.34-17.918s-.797-12.656 1.277-18.453c2.02-5.637 7.711-9.574 10.953-14.945 3.457-5.793 3.988-13.398 8.137-18.078 4.414-5 9.199-9.891 14.355-13.719 5.211-3.883 12.34-4.84 18.293-7.551 5.797-2.66 11.008-7.766 17.441-9.359 6.117-1.543 13.137.16 19.785-.48 6.594-.637 13.078-1.543 19.461-.957 6.488.586 12.711 2.766 19.09 4.203s12.336 3.934 18.613 5.742c6.699 1.969 12.496 4.68 17.707 9.625 3.563 3.348 8.348 5.477 11.379 9.199 4.785 5.848 8.508 12.922 14.039 17.922s14.785 5.688 20.688 10.262c4.359 3.402 7.656 8.188 12.602 10.637 4.785 2.391 9.785 4.254 14.73 6.273s9.996 3.563 15.047 5.316 10.426 2.234 15.531 3.723c7.016 2.074 13.238 7.18 20.418 8.563 7.551 1.488 14.785 3.563 22.176 5.531s14.887 3.137 22.121 5.848c7.285 2.766 15.688 3.563 21.059 9.52 2.285 2.551 3.828 5.902 6.699 7.922 6.223 4.469 12.922 8.191 17.281 13.723 4.574 5.793 6.754 13.078 9.574 19.887 2.711 6.594 4.359 13.613 5.688 21.059 1.012 5.742 5.105 11.273 5 16.855-.055 5.742-5.211 11.008-6.273 16.539s1.648 12.281-.32 17.652c-1.914 5.266-7.551 9.148-10.156 14.254-3.352 6.645-4.203 14.887-8.457 20.793-4.305 5.953-13.453 7.656-18.77 12.762-5.211 5.051-9.465 10.898-15.637 15.047-5.582 3.723-11.484 6.383-17.387 9.309-5.957 2.977-11.219 7.285-17.496 9.41s-13.027 1.863-19.566 3.031c-6.438 1.117-12.711 4.469-19.465 4.625-6.965.16-13.824-2.922-20.738-3.453-2.605-.215-5.637-2.34-9.094-3.457" clip-rule="nonzero"/></clipPath><clipPath id="C"><path d="M407 26h155v159H407zm0 0" clip-rule="nonzero"/></clipPath><clipPath id="D"><path d="M540.148 183.141c-5.266-.105-10.211-1.914-15.262-2.977s-10.422-.906-15.316-3.191c-8.508-3.988-17.492-6.809-26.27-10.316-3.828-1.543-6.859-4.84-10.422-6.965-5.105-3.031-10.898-4.895-15.953-7.977s-9.676-6.863-14.781-9.891c-4.203-2.5-9.73-3.141-13.668-6.012s-4.891-9.465-8.562-12.707c-5.953-5.266-12.441-10.105-12.121-17.867.211-5.105 4.836-9.254 6.699-13.613s1.754-10.691 5.797-14.094c2.977-2.551 7.125-4.414 10.953-5.422 2.02-.535 4.52 1.008 6.543.742 5.051-.637 9.891-2.711 14.621-4.465s9.254-3.988 13.984-5.746c2.234-.848 6.488.109 8.297-1.434 4.574-3.988 7.18-10.316 11.859-14.305s8.137-8.883 12.016-13.508c4.043-4.891 11.914-7.18 18.242-6.805 6.754.426 12.656 5.316 15.793 9.625 3.297 4.52 4.309 8.719 2.285 13.879-2.18 5.582.16 12.336-1.117 18.078s-2.445 11.488-3.508 17.336c-.902 5.105-.531 8.773.691 13.348s2.02 8.668 5.105 12.762c1.859 2.5 3.457 5.105 5.637 7.34 4.094 4.148 8.773 8.082 11.434 12.762 2.816 4.891 2.23 11.328 3.563 16.75 1.328 5.266 5.051 10.637 5.105 16.379 0 3.031-5.32 5.371-6.383 8.242-2.285 6.063-3.988 11.805-11.219 10.848-1.383-.16-2.66-.852-4.043-.852" clip-rule="nonzero"/></clipPath><path id="E" d="M194.129 0h461.242v508.09H194.129zm0 0"/></defs><g clip-path="url(#A)"><g clip-path="url(#B)"><use href="#E" fill="#a2cec5"/></g></g><g clip-path="url(#C)"><g clip-path="url(#D)"><use href="#E" fill="#a2cec5"/></g></g></svg>