<svg xmlns="http://www.w3.org/2000/svg" width="1133" zoomAndPan="magnify" viewBox="0 0 849.75 510" height="680" preserveAspectRatio="xMidYMid meet" xmlns:v="https://vecta.io/nano"><style><![CDATA[.B{clip-rule:nonzero}.C{fill:#fad275}]]></style><defs><clipPath id="A"><path d="M435.18 290.336H603.82V481H435.18zm0 0" class="B"/></clipPath><clipPath id="B"><path d="M602.293 407.703h.898l-.059 23.063c0 12.289-7.461 19.75-19.863 20.535-33.945 2.078-67.559 6.063-100.156 16.105-10.551 3.254-20.875 7.465-31.086 11.727-2.637 1.125-4.996 1.629-7.016 1.629-5.668 0-8.922-4.098-8.922-12.008v-50.332h-.055l-.168-81.082c-.059-4.207.84-7.406 2.75-9.988 1.457-1.961 3.477-3.59 6.172-4.992 19.078-10.27 39.387-17.059 60.375-21.324l8.473-1.625c22.445-3.816 45.168-6.117 67.836-8.418.898-.113 1.742-.113 2.582-.113 11.559 0 19.137 8.137 19.191 20.426l.055 20.145c-14.082.223-24.801 5.836-29.625 15.316-3.086 6.117-4.32 13.414-3.762 21.719.508 7.574 2.359 14.867 5.387 21.77 1.461 3.254 3.648 7.461 7.688 10.887 4.938 4.207 12.008 6.621 19.414 6.621" class="B"/></clipPath><clipPath id="C"><path d="M246 290.336h168V481H246zm0 0" class="B"/></clipPath><clipPath id="D"><path d="M413.535 418.926v50.949c0 6.734-3.984 10.941-9.43 10.941-1.738 0-3.535-.449-5.441-1.289-30.355-14.141-62.562-20.93-95.559-24.859-12.23-1.457-24.574-2.301-36.863-3.309-12.57-1.012-19.809-8.418-19.863-21.211l-.059-22.613c1.348.168 2.695.227 4.043.227 4.32 0 8.641-.844 12.457-2.469 11.164-4.77 13.969-18.406 14.867-22.895 1.738-8.25 2.078-17.281 2.133-21.883.055-4.098-.223-9.426-2.863-14.59-1.625-3.141-6.562-12.738-20.309-14.254h-.34c-1.344-.109-2.75-.168-4.094-.168a50.91 50.91 0 0 0-5.949.34v-17.957c0-15.262 7.125-22.895 21.266-22.895.953 0 2.02.059 3.086.113 25.98 1.852 51.734 4.715 76.984 10.66 10.941 2.582 21.828 5.781 32.488 9.652 8.98 3.309 17.563 7.855 26.262 11.895 2.074.953 3.648 2.188 4.77 3.648 1.797 2.301 2.523 5.273 2.523 8.977l-.109 82.934" class="B"/></clipPath><clipPath id="E"><path d="M230.035 344H268v52h-37.965zm0 0" class="B"/></clipPath><clipPath id="F"><path d="M267.309 360.289c-.113 10.719-1.742 30.133-9.371 33.387-2.414 1.012-5.051 1.461-7.574 1.461-1.402 0-2.75-.168-4.043-.395-2.859-.562-5.441-1.684-7.238-3.199-1.961-1.684-3.254-4.039-4.32-6.453-2.469-5.496-3.926-11.445-4.32-17.504-.336-5.164.113-10.551 2.469-15.152s7.746-7.07 13.469-7.965c1.965-.34 3.984-.449 5.945-.449 1.066 0 2.078.055 3.09.109 7.012.785 9.09 4.828 10.434 7.465s1.516 5.723 1.516 8.695" class="B"/></clipPath><clipPath id="G"><path d="M582 344h37.465v52H582zm0 0" class="B"/></clipPath><clipPath id="H"><path d="M619.238 360.289c-.113 10.719-1.684 30.133-9.371 33.387-2.133.898-4.379 1.348-6.676 1.461-.281 0-.617.055-.898.055-4.434 0-8.641-1.402-11.281-3.59-1.961-1.684-3.254-4.043-4.32-6.453-2.469-5.5-3.926-11.449-4.375-17.508-.336-5.16.113-10.547 2.469-15.148 3.031-6.004 11.168-8.25 18.461-8.418h.953c1.066 0 2.078.055 3.086.113 7.016.785 9.09 4.824 10.438 7.461s1.516 5.723 1.457 8.699" class="B"/></clipPath><clipPath id="I"><path d="M293 28h263.879v251H293zm0 0" class="B"/></clipPath><clipPath id="J"><path d="M552.41 119.91c-.617-6.902-2.02-13.523-4.266-19.918v-.059C543.879 79.957 522.5 20.984 429.75 28.73c-82.203 6.957-109.699 57.457-114.859 68.902-.336.617-.676 1.348-.898 2.133-.055.055-.055.113-.055.168v.059c-3.703 12.285-8.754 24.352-11 36.918-5.051 28.73-11.391 57.289-8.922 87.031 1.293 15.711 4.043 30.637 9.484 45.336 2.414 6.453 8.359 9.426 13.016 9.539 13.973.449 28.059-1.18 42.086-1.965 2.859-.168 5.777.281 8.586-.055 2.914-.336 6.844-.395 8.473-2.187 5.723-6.34 6.172-16.777.727-23.566-3.926-4.937-9.707-8.305-14.082-12.965-5.781-6.113-13.129-12.008-15.937-19.469-6.227-16.383-11.277-33.219-13.016-51.062-1.402-14.418-2.246-28.055 5.387-41.07 3.984-6.793 9.93-11.223 17.395-12.18 14.477-1.852 29.121-2.469 43.652-3.98 9.148-.957 18.293-2.191 27.215-4.152 7.91-1.742 15.598-4.547 23.285-7.129 3.367-1.121 6.902-2.469 9.766-4.543 7.629-5.5 20.199-3.648 24.801 4.656 5.609 9.988 12.848 17.957 23.789 21.715 6.172 2.133 6.902 6.34 7.016 11.84.563 26.09-3.871 51.512-11.223 76.367-5.387 18.18-16.215 32.938-32.375 43.316-6.957 4.492-7.352 14.984.168 18.461 8.359 3.871 17.059 7.406 26.934 5.219 3.086-.672 6.563.168 9.82.676 12.176 1.852 23.227 1.457 32.766-8.586 10.496-11.109 12.121-24.914 13.242-38.66 1.125-13.973 1.125-28.113 1.125-42.141-1.461-22.5-1.742-45.059-3.648-67.5" class="B"/></clipPath><clipPath id="K"><path d="M342 100h167v211.195H342zm0 0" class="B"/></clipPath><clipPath id="L"><path d="M371.449 231.012c7.746 6.449 17.34 10.715 25.98 16.102 1.684 1.066 3.367 2.863 3.984 4.715 3.984 11.84-6.68 28.895-22.332 31.535-4.656.785-9.371 1.457-14.086 2.129-2.41.34-2.578 3.816-.168 4.379 18.012 4.039 40.457 10.715 54.711 20.648 0 0 4.43 2.246 12.398-2.469 5.949-3.535 20.313-11.277 40.906-17.957 3.031-.953 2.75-5.387-.395-5.836-1.234-.223-2.523-.391-3.758-.617-14.422-2.523-23.625-14.645-24.016-25.809-.336-9.371 2.523-9.934 12.23-11.672 1.125-.223 6.004-.785 7.016-1.18 14.141-5.555 23.512-13.41 28.672-27.492 5.555-15.094 8.023-31.312 11.277-47.191 1.742-8.359 1.684-17.113 3.535-25.418 2.637-11.613.617-18.461-10.043-23.172-7.855-3.48-12.906-8.867-16.891-16.051-3.086-5.555-6.844-6.172-12.902-3.812-14.871 5.891-29.012 13.578-45.621 14.98-16.383 1.348-32.77 4.039-49.039 6.395-2.582 0-5.277-.559-7.855-.504-10.719.395-21.883 11-22.672 21.156-1.906 23.621 3.648 45.898 13.469 66.938 3.535 7.578 9.203 14.816 15.543 20.203" class="B"/></clipPath><path id="M" d="M202.219 0h445.063v509.387H202.219zm0 0"/></defs><g clip-path="url(#A)"><g clip-path="url(#B)"><use href="#M" fill="#a2cec5"/></g></g><g clip-path="url(#C)"><g clip-path="url(#D)"><use href="#M" fill="#a2cec5"/></g></g><g clip-path="url(#E)" class="C"><g clip-path="url(#F)"><use href="#M"/></g></g><g clip-path="url(#G)" class="C"><g clip-path="url(#H)"><use href="#M"/></g></g><g clip-path="url(#I)" class="C"><g clip-path="url(#J)"><use href="#M"/></g></g><g clip-path="url(#K)" class="C"><g clip-path="url(#L)"><use href="#M"/></g></g></svg>