<svg xmlns="http://www.w3.org/2000/svg" width="1133" zoomAndPan="magnify" viewBox="0 0 849.75 510" height="680" preserveAspectRatio="xMidYMid meet" xmlns:v="https://vecta.io/nano"><style><![CDATA[.B{clip-rule:nonzero}.C{fill:#fff5e8}]]></style><defs><clipPath id="A"><path d="M470.199 4.883h378.594v499.086H470.199zm0 0" class="B"/></clipPath><clipPath id="B"><path d="M659.711 4.891C555.02 4.949 470.207 36.152 470.207 254.43c0 218.492 84.98 249.535 189.816 249.535s189.813-21.488 189.813-249.535c0-227.777-84.781-249.488-189.441-249.539zm0 0" class="B"/></clipPath><clipPath id="C"><path d="M616 231.473h40.746V272H616zm0 0" class="B"/></clipPath><clipPath id="D"><path d="M656.5 251.75c0 11.082-8.977 20.059-20.059 20.059a20.06 20.06 0 0 1-20.062-20.059c0-11.082 8.98-20.062 20.063-20.062A20.06 20.06 0 0 1 656.5 251.75" class="B"/></clipPath><clipPath id="E"><path d="M771 231.473h41V272h-41zm0 0" class="B"/></clipPath><clipPath id="F"><path d="M811.121 251.75c0 11.082-8.977 20.059-20.059 20.059A20.06 20.06 0 0 1 771 251.75c0-11.082 8.98-20.062 20.063-20.062a20.06 20.06 0 0 1 20.059 20.063" class="B"/></clipPath><clipPath id="G"><path d="M684.094 266h55.672v17h-55.672zm0 0" class="B"/></clipPath><clipPath id="H"><path d="M692.672 266.801a40.88 40.88 0 0 0 38.07 0c2.766-1.457 6.191-.391 7.648 2.379s.391 6.191-2.379 7.648c-15.211 8-33.391 8-48.613 0-2.766-1.457-3.832-4.883-2.375-7.648s4.879-3.836 7.648-2.379zm0 0" class="B"/></clipPath><path id="I" d="M465.316 0h841.906v508.852H465.316zm0 0"/></defs><g clip-path="url(#A)"><g clip-path="url(#B)"><use href="#I" fill="#fad275"/></g></g><g clip-path="url(#C)" class="C"><g clip-path="url(#D)"><use href="#I"/></g></g><g clip-path="url(#E)" class="C"><g clip-path="url(#F)"><use href="#I"/></g></g><g clip-path="url(#G)" class="C"><g clip-path="url(#H)"><use href="#I"/></g></g></svg>