<svg xmlns="http://www.w3.org/2000/svg" width="1133" zoomAndPan="magnify" viewBox="0 0 849.75 510" height="680" preserveAspectRatio="xMidYMid meet" xmlns:v="https://vecta.io/nano"><style><![CDATA[.B{clip-rule:nonzero}.C{fill:#fad275}]]></style><defs><clipPath id="A"><path d="M166 330h576.73v155H166zm0 0" class="B"/></clipPath><clipPath id="B"><path d="M622.902 482.719c-20.723 1.859-39.293-6.078-58.109-12.789-9.848-3.527-20.234-5.93-29.348-10.781-12.348-6.516-24.012-14.5-35.328-22.734-5.293-3.871-9.406-7.348-16.902-7.004-9.262.441-18.621-2.156-27.98-2.793-18.566-1.273-37.187-2.746-55.758-2.988-21.801-.297-43.605.539-65.41 1.176-24.891.684-49.828 1.078-74.719 2.793-20.48 1.371-40.324-3.187-60.465-4.363-10.828-.637-20.039-3.871-25.625-13.082-12.395-20.332-8.867-51.445 13.867-67.125 6.566-4.508 12.887-5.437 20.188-6.172 13.867-1.375 27.633-4.168 41.5-5.391 24.059-2.109 48.113-1.812 72.074 1.715 13.473 1.961 26.996 4.113 40.52 4.508 13.672.391 27.391-1.227 41.059-1.961 3.137-.148 6.273-.148 9.457-.293l53.945-2.402c11.613-.195 23.324.637 34.887 1.766 17.051 1.664 27.145 13.766 36.453 26.262 5.098 6.809 9.016 14.551 13.77 21.656 6.711 9.996 17.441 14.75 27.633 19.941 14.945 7.594 30.723 13.574 47.625 13.672 9.801.047 19.844-2.453 29.449-4.949 15.336-3.969 30.523-8.672 45.613-13.523 20.777-6.664 41.648 8.965 40.863 30.918-.488 13.473-7.004 21.02-20.086 24.789-6.715 1.961-12.789 5.883-19.402 8.332-13.719 5.094-27.441 10.484-41.5 14.504-12.445 3.527-25.332 5.289-38.023 7.887zm0 0" class="B"/></clipPath><clipPath id="C"><path d="M308 157.027h198v170.945H308zm0 0" class="B"/></clipPath><clipPath id="D"><path d="M427.113 289.719c-1.961 5.977-4.902 11.855-5.684 18.031-1.715 13.473-12.691 19.941-24.648 19.992-24.055.098-48.113-.199-72.172-.441-9.062-.098-16.168-7.891-15.727-16.906.734-15.875 5.586-30.816 11.219-45.418 5.781-14.945 12.203-29.793 19.844-43.855 5.34-9.75 13.719-17.832 19.844-27.191 9.801-15.043 23.91-24.398 39.688-31.602 21.07-9.652 34.348-3.629 49.242 14.258 11.762 14.109 11.32 31.406 6.91 47.867-4.852 18.031 1.617 31.113 14.602 42.188 8.23 7.008 17.195 13.18 25.527 20.09 7.938 6.613 11.512 14.992 8.621 25.527-2.449 8.867-7.301 13.914-16.316 13.965-7.984.047-16.07-1.129-23.859-2.941-11.32-2.645-17.785-11.809-24.547-20.332l-10.34-13.18zm0 0" class="B"/></clipPath><clipPath id="E"><path d="M107 431h404v51H107zm0 0" class="B"/></clipPath><clipPath id="F"><path d="M215.836 434.211c8.723.148 17.348 2.988 26.117 3.379 12.887.59 25.82-.098 38.758.098 10.043.148 20.086.836 30.133 1.375 6.074.34 12.148.98 18.227 1.176 12.148.488 24.352 1.418 36.5 1.027 16.074-.488 32.094-2.105 48.164-3.234.637-.047 1.227-.344 1.863-.344 14.699-.195 29.594-1.91 44 0 13.668 1.816 26.996 6.961 40.176 11.566 6.859 2.398 12.301 10.633 10.34 14.305-3.234 5.98-9.703 7.594-15.926 7.84l-101.375 2.844-99.363 2.496-63.941 1.473c-22.391.832-44.785 3.184-67.125 3.086-12.742-.051-25.676-2.793-38.168-5.879-15.926-3.922-22.246-24.402-11.125-38.414 2.449-3.086 7.793-3.871 11.809-5.684.195.93 60.953 2.5 91.086 2.938" class="B"/></clipPath><clipPath id="G"><path d="M427 53h116.957v123H427zm0 0" class="B"/></clipPath><clipPath id="H"><path d="M481.891 175.016c-21.461.098-40.816-13.523-47.332-33.266-3.086-9.359-6.516-18.965-7.25-28.664-1.273-16.367 8.133-29.496 18.863-40.031 8.184-7.988 17.492-16.66 29.789-18.422 20.922-2.941 40.914-.098 56.297 15.727 4.559 4.656 6.422 12.445 8.379 19.109 6.027 20.43 2.207 40.078-7.789 58.258-11.074 20.086-29.449 27.879-51.008 27.289" class="B"/></clipPath><clipPath id="I"><path d="M551 282.254h123V399H551zm0 0" class="B"/></clipPath><clipPath id="J"><path d="M604.383 283.301c29.008-.051 49.34 10.828 62.324 33.121 18.57 31.848-3.383 82.512-48.457 82.363-22.832-.098-56.102-20.383-63.895-45.91-4.652-15.187-3.871-30.281 5.637-44 3.086-4.457 5.879-9.113 8.867-13.621.688-.977 1.617-1.957 2.645-2.496 11.172-5.93 22.539-11.32 32.828-9.457" class="B"/></clipPath><clipPath id="K"><path d="M405 24h57.461v56H405zm0 0" class="B"/></clipPath><clipPath id="L"><path d="M462.145 44.781c-.883 2.254-1.227 6.617-3.527 8.676-8.82 7.738-18.277 14.699-27.488 21.949-.293.246-.93.098-1.176.344-3.773 3.82-7.645 5.781-12.934 2.254-6.418-4.312-10.828-9.703-11.562-17.687-1.816-18.426 11.121-30.379 29.887-35.18 11.023-2.844 22.539 3.969 26.313 14.648.391 1.129.293 2.449.539 4.996" class="B"/></clipPath><path id="M" d="M82.813 0h683.77v508.852H82.813zm0 0"/></defs><g clip-path="url(#A)"><g clip-path="url(#B)"><use href="#M" fill="#f5ac48"/></g></g><g clip-path="url(#C)" class="C"><g clip-path="url(#D)"><use href="#M"/></g></g><g clip-path="url(#E)"><g clip-path="url(#F)"><use href="#M" fill="#7c9ecc"/></g></g><g clip-path="url(#G)" class="C"><g clip-path="url(#H)"><use href="#M"/></g></g><g clip-path="url(#I)"><g clip-path="url(#J)"><use href="#M" fill="#f5ac48"/></g></g><g clip-path="url(#K)" class="C"><g clip-path="url(#L)"><use href="#M"/></g></g></svg>