<svg xmlns="http://www.w3.org/2000/svg" width="1133" zoomAndPan="magnify" viewBox="0 0 849.75 510" height="680" preserveAspectRatio="xMidYMid meet" xmlns:v="https://vecta.io/nano"><defs><clipPath id="A"><path d="M264.648 276.973h320.199V464H264.648zm0 0" clip-rule="nonzero"/></clipPath><clipPath id="B"><path d="M495.246 392.484l25.762-.094c8.043-.18 13.016-4.879 13.105-11.66s-4.973-11.66-13.016-11.75a2385.31 2385.31 0 0 0-50.711 0c-8.137.09-13.105 4.699-13.105 11.57s5.063 11.57 12.926 11.75c8.316.184 16.633.09 24.945.09m-70.594 71.141c-43.93-1.988-86.867-6.961-127.816-23.41-9.582-3.797-18.621-8.949-27.66-13.922-2.078-1.176-4.43-4.793-4.156-6.871l15.547-89.398c2.078-11.027 9.402-18.801 18.531-24.766 21.242-13.832 45.016-21.422 69.059-28.113 1.809-.449 5.242 1.266 6.508 2.984 11.934 16.813 27.66 29.195 44.926 40.133 3.797 2.441 6.598 2.078 10.215-.18 17.266-10.848 32.902-23.41 44.832-40.133 1.266-1.809 5.426-3.164 7.324-2.441 20.699 7.773 41.578 15.367 61.828 24.223 14.734 6.418 23.863 18.352 26.664 34.531l13.742 82.078c.813 4.699-1.629 6.867-5.152 8.945-24.59 14.824-51.434 23.684-79.457 27.934-24.855 3.797-50.078 5.785-75.113 8.496" clip-rule="nonzero"/></clipPath><clipPath id="C"><path d="M282.258 45H566v231H282.258zm0 0" clip-rule="nonzero"/></clipPath><clipPath id="D"><path d="M386.684 127.363c-13.195 5.875-23.141 16.902-29.105 33.172-3.527 9.855-7.957 19.707-4.973 30.734 8.496 31.184 27.75 53.785 55.59 69.512 11.664 6.598 23.234 5.695 34.531-.902 25.129-14.645 43.297-35.254 52.336-63.187 5.875-18.348 2.531-25.129-15.547-32.629-4.156-1.719-8.496-3.527-12.926-4.16-9.941-1.355-20.066-1.988-30.102-2.98-20.969-2.262-39.41-8.859-49.895-29.559m134.23 141.914c-17.625-1.715-34.437-3.707-50.168-11.84-1.625-.812-4.699-.18-6.418.813-4.969 2.895-9.578 6.508-14.461 9.672-16.543 10.484-33.266 10.578-49.895.18-5.969-3.703-11.391-10.211-17.629-11.207-5.785-.812-12.383 4.609-18.801 6.418-21.332 5.875-42.848 5.965-64.449 1.266-3.617-.812-7.324-1.988-10.668-3.707-7.051-3.707-7.594-9.582-.359-12.926 18.438-8.676 23.5-24.676 24.945-42.754 1.629-21.605 2.715-43.301 3.707-64.992.723-15.73 2.531-31.457 10.488-45.289 5.512-9.672 12.652-18.711 20.336-26.934 23.953-25.402 125.102-35.527 156.109 1.355 17.715 21.059 27.93 42.484 29.195 69.059l3.523 64.27c.273 4.52 1.176 9.039 1.898 13.469 2.262 13.469 8.496 23.953 21.152 30.461 2.984 1.535 7.051 5.875 6.598 7.863-.812 3.164-4.699 6.871-7.953 7.684-12.203 2.984-24.586 4.883-36.879 7.141" clip-rule="nonzero"/></clipPath><path id="E" d="M219.82 0h409.855v509.117H219.82zm0 0"/></defs><g clip-path="url(#A)"><g clip-path="url(#B)"><use href="#E" fill="#f6ad48"/></g></g><g clip-path="url(#C)"><g clip-path="url(#D)"><use href="#E" fill="#f6ad48"/></g></g></svg>