<svg xmlns="http://www.w3.org/2000/svg" width="1133" zoomAndPan="magnify" viewBox="0 0 849.75 510" height="680" preserveAspectRatio="xMidYMid meet" xmlns:v="https://vecta.io/nano"><style><![CDATA[.B{clip-rule:nonzero}]]></style><defs><clipPath id="A"><path d="M169 346h494v127H169zm0 0" class="B"/></clipPath><clipPath id="B"><path d="M661.332 383.195c.941 10.129 2.461 21.844.074 33.273-.871 4.051-6.223 7.016-7.453 10.992-1.445 4.848-1.445 10.996-6.727 12.516-2.242.648-6.145-.727-7.594 1.012-4.484 5.063-10.125 5.207-16.199 6.363-6.512 1.23-11.355 7.379-17.215 10.344-6.727 3.473-15.191-1.23-22.277.434-3.832-1.809-8.027-.652-11.645 0-11.863 2.242-23.219 5.93-35.441 5.57-11.355-.363-22.785 2.602-34.141 3.039-10.922.434-21.988-1.809-32.91-1.52l-27.484.359c-9.184-.07-18.371 1.012-27.484.723s-18.516 3.547-27.629 3.113-18.301-2.531-27.414-3.617-17.793-1.664-26.832-1.664-18.012-.219-27.051-.434c-6.945-.219-13.816-.074-20.613.941s-14.25.289-20.902 2.313c-10.273 3.184-19.82 2.82-30.164 2.242-5.496-.289-11.281 3.762-16.777 3.398-4.918-.289-8.32-5.133-12.66-8.027-3.977-2.676-10.703-.508-15.113-2.531-6.727-3.109-9.043-11.43-11.285-18.082-2.316-6.801-2.316-13.598-2.605-21.047-.359-8.32-5.277-16.273-6.437-24.52-1.012-7.812 1.738-15.48 3.258-22.93.359-1.879 1.156-5.207 2.746-6.363 9.402-7.305 20.324-7.957 32.621-5.281 9.332 2.027 19.457-.578 28.934.723s18.441 2.531 28.062 2.316c8.535-.145 17.574 1.52 26.184 2.531 4.773.578 9.258 6.727 14.102 6.797 6.801.074 13.598-2.457 20.324-2.531s13.598 2.316 20.324 2.242c4.195-.07 8.465-.648 12.586-.867 10.055-.578 19.527-1.664 29.656-.508 4.051.508 8.969-1.879 12.945-2.891 12.586-3.039 25.461-1.445 38.262-2.605 10.707-1.012 21.121-4.918 31.754-6.363s20.758-4.414 31.102-7.594c6.004-1.883 12.656-3.547 18.949-3.617 11.789-.074 23.652 3.832 35.367 3.473 5.934-.145 11.719-2.75 17.648-2.824 4.484-.07 9.188 2.535 13.672 2.172 8.316-.652 16.488-3.184 24.734-4.195 6.512-.797 13.238-1.086 19.602-2.531 3.98-.867 6.727-.867 10.344 1.23 7.379 4.34 13.309 9.906 18.734 16.129 1.66 1.879.07 5.496.434 8.172s-.578 5.426-.578 9.98" class="B"/></clipPath><clipPath id="C"><path d="M503 82h194v257H503zm0 0" class="B"/></clipPath><clipPath id="D"><path d="M620.828 328.949c-4.773.871-8.172 4.918-13.309 5.5l-34.137 3.758c-7.379.941-15.047.871-22.207-.215-5.641-.797-10.488-2.242-15.91-1.375-8.898 1.445-18.301 2.023-27.777 2.098-.434-2.098-1.156-4.992-1.082-6.582.145-5.207 0-10.199-2.027-15.187-1.086-2.676.145-5.5 1.375-8.102 2.965-6.223 4.195-13.383 7.234-19.602l11.355-23.363c3.543-7.086 8.387-13.887 12.148-21.336 5.934 3.184 14.324 3.688 18.301 8.68 3.254 4.051 5.496 7.594 10.199 9.039 5.711 1.738 8.242-.359 11.137-5.855-.289-5.426 1.445-11.574-3.328-14.758-1.371-.937-5.352.289-6.074-1.227-3.543-7.09-8.895-10.922-15.621-14.902-.797-.504 2.746-2.387 1.734-3.687 4.629-9.043 6.148-19.965 12.152-28.426 5.641 5.93 13.813 7.16 20.828 9.766 4.918 1.809 9.766 5.352 14.758 3.035 4.121-1.879 4.34-5.785 2.82-10.051-1.016-2.965-2.461-5.789-3.473-8.68-1.156-3.617-1.809-8.824-5.352-10.055-1.305-.434-4.918 3.906-6.078 3.254-13.523-8.027-13.234-11.5-5.133-24.953 2.531-4.121 4.41-8.75 7.016-12.801 6.727-10.559 16.488-18.734 26.617-26.328 3.832-2.895 8.895-5.207 12.078-8.824 5.352-6.219 11.066-9.91 17.863-13.379s12.875-9.187 20.617-10.922c6.363-1.449 13.449 0 19.02 3.035 6.223 3.402 9.766 10.199 10.055 17.578.145 4.121-1.879 8.605-1.23 12.73 1.52 9.836 1.156 19.02-.578 28.566s-4.195 18.879-6.437 28.355c-.867 3.688-.648 7.664-1.52 11.355-1.012 4.051-3.035 7.738-4.266 11.715-2.242 7.234-6.004 14.18-6.656 21.844-.215 2.027 1.664 5.137.797 6.945-5.137 10.633-15.117 18.805-20.18 29.438-3.109 6.508-1.301 15.332-4.121 22.059-4.34 10.563-9.332 20.832-13.598 31.391-.652 1.594-3.039 2.461-4.051 3.906-3.98 6.074-9.477 10.199-13.887 16.781" class="B"/></clipPath><clipPath id="E"><path d="M153 36h164.457v321.789H153zm0 0" class="B"/></clipPath><clipPath id="F"><path d="M236.184 343.488c5.281-.07 12.73-1.23 16.492-6.582 2.387-3.254-1.52-6.148-5.426-7.086-6-1.52-11.426-3.184-16.922-.871-2.605 1.086-3.617 5.789-3.258 8.246.434 3.109 2.242 2.676 6.293 2.965.723.074 1.23 3.328 2.82 3.328m8.176-45.422c-4.918-3.328-11.719-5.207-17.289-2.965-6.871 2.82-11.355 6.871-14.176 15.406 1.012 1.809-1.086 3.617.074 5.352 1.809 2.895 5.277 3.039 8.535 3.039 6.293 0 10.922-2.969 15.984-6.656s9.98-7.523 6.941-14.105m-7.957-183.207c3.691.289 7.523-1.953 9.262-4.629 3.324-5.137 5.133-11.426 9.98-14.684 6.004-4.051 13.02-2.098 19.457 2.172.359.867 2.023 1.086 2.168 2.098 2.098 13.09 2.965 14.684-6.219 24.375-4.484 4.773-8.246 9.98-12.371 15.117-1.227 1.59-6.508 1.012-7.305 2.965l-11.645 30.086c-2.168 5.57-1.734 7.379.074 16.348 1.227-.867 3.035-3.977 3.977-4.699 1.664-1.23 5.207 0 6.871-1.305 7.379-6.074 12.656-7.449 21.266-1.953 4.988 10.996 4.34 19.82-2.316 28.5l-8.242 10.633c-2.027 2.746-7.02 3.758-8.465 6.871-2.312 5.063 2.242 11.426 7.813 11.645 7.016.215 14.031.648 20.684 2.098 6.801 1.445 11.863 7.375 16.203 13.164 1.012 1.371.723 3.035 1.301 4.629 2.676 7.449 8.32 13.887 10.055 21.695s3.109 15.625 5.063 23.363c1.953 7.523 4.27 15.262 2.027 22.855-2.461 8.102-7.09 16.273-6.223 24.664.508 4.992 2.172 5.281-2.746 5.137-5.207-.074-10.488 1.445-15.625 1.23-9.328-.434-18.66-2.098-27.992-1.953-10.051.145-20.758 1.52-31.242.145-10.129-1.305-20.035-5.789-30.09-8.68-4.703-6.945-9.766-13.672-11.789-20.902-2.172-7.668-1.23-15.984-.363-24.016.797-7.449 5.426-13.957 8.898-21.699 1.805-4.121 1.805-9.039 3.832-13.09 2.676-5.352 6.074-10.27 10.777-14.031 2.965-2.387 8.605-3.906 11.859-7.016-1.301-2.605-7.375-4.848-9.113-7.305-4.918-7.09-7.52-15.84-12.512-22.93s-8.605-15.117-13.598-22.203c-1.59-2.242-7.379-2.172-8.605-4.559-4.992-10.27-10.418-19.457-19.312-26.109-4.34-3.254-5.641-7.449-9.258-11.934 2.242-3.258 2.891-6.078 5.133-9.258 9.188-1.16 16.422 3.109 24.016 7.52l16.996 10.055c1.086.652 3.762.434 5.785 1.301-.289-3.613 1.016-7.23.438-9.836-1.664-7.16-2.535-14.031-2.605-21.266s0-14.465.289-21.77c.434-10.055-.797-20.25.723-30.16 1.375-9.187 4.27-18.227 6.004-27.34 1.086-5.859 4.848-10.418 9.113-13.309 3.762-2.531 7.738 1.879 11.211 4.988 3.832 3.402 7.234 5.859 6.945 11.141-.582 8.605-3.473 17.141-3.762 25.75-.289 10.051 4.699 20.18 4.699 30.23 0 1.664-1.734 3.328-1.227 4.992.07.508.867.215.938.652-.145-.508-.867.723-1.012.145" class="B"/></clipPath><clipPath id="G"><path d="M334 188.832h100.73V308H334zm0 0" class="B"/></clipPath><clipPath id="H"><path d="M355.309 218.434c-1.805-2.605-1.953-5.355-3.687-7.957-2.965-4.195-1.375-7.594 2.027-11.719 1.516-1.879 3.254-2.531 4.844-4.773 1.953-.145 2.242-1.301 4.34-1.301 7.957.145 11.355 3.254 15.043 10.414 1.086 2.172 5.57 2.676 6.438 4.848 1.738 4.195 2.676 4.121 5.355.359 1.805-2.531 2.676-5.422 4.195-8.098 2.242-4.051 6.434-7.379 10.629-9.621 6.582-3.473 12.516-.867 18.953 3.254 2.023 8.535 8.172 18.012 1.953 26.98 1.227 1.953 2.676 1.082 3.688 2.82 3.832 6.293 3.906 14.465 4.844 21.914 1.52 11.285-2.965 21.699-5.062 32.547-1.156 6.004-1.809 11.574-7.449 13.672-6.293 2.387-10.055 7.16-14.898 11.789-2.676 2.531-9.402-.215-12.73 1.594-4.195 2.242-6.363 2.387-10.848.793-9.551-3.328-20.18-1.664-30.379-2.531-5.426-.504-7.09-6.219-9.043-11.715-.578-1.594-2.312-3.402-3.254-4.703-5.281-6.871-6.074-15.406-5.352-24.809.797-9.766 2.602-19.238 6.438-25.531 3.832-6.148 8.316-10.852 14.973-14.539.867-.434-1.883-2.75-1.086-3.687" class="B"/></clipPath><clipPath id="I"><path d="M390 296.168h102.375V354H390zm0 0" class="B"/></clipPath><clipPath id="J"><path d="M395.598 353.977c-1.301-7.594-6.148-13.672-5.352-20.18.215-2.027 3.324-3.977 4.266-5.785 5.352-10.273 12.656-17.937 24.086-22.422 9.766-3.906 19.383-7.09 29.582-8.754 8.898-1.445 16.707 3.398 25.098 5.426 1.664.434 2.895 2.895 4.559 3.184 6.652 1.301 8.535 4.195 10.27 10.195.578 2.027 3.762 3.473 3.906 5.5.508 6.145-.363 12.367 0 18.875-1.52.652-3.039 0-4.629.434-7.016 1.883-13.383 6.727-20.469 8.176-4.34.867-9.547-2.098-13.961-1.305-10.199 1.883-20.18 5.137-30.523 6.078-6.219.578-12.727-1.664-18.875-.941-2.75.289-4.125 1.301-7.887 1.52" class="B"/></clipPath><clipPath id="K"><path d="M320 313h65v44h-65zm0 0" class="B"/></clipPath><clipPath id="L"><path d="M383.734 356.363c-8.391.578-16.926-1.375-24.879-.867-8.176.504-15.984 1.734-24.086 1.012-5.715-.508-10.777-1.156-12.512-6.219-3.113-9.113-.363-18.953 2.676-27.488 1.227-3.613 5.641-5.785 8.535-7.375 6.363-3.543 14.465-1.23 22.059-.508s13.816 2.605 19.602 7.016c4.988 3.762 10.27 7.16 9.113 13.02-1.375 6.945-2.531 13.672-.508 21.41" class="B"/></clipPath><path id="M" d="M116.699 0h616.188v508.852H116.699zm0 0"/></defs><g clip-path="url(#A)"><g clip-path="url(#B)"><use href="#M" fill="#7c9ecc"/></g></g><g clip-path="url(#C)"><g clip-path="url(#D)"><use href="#M" fill="#f5ac48"/></g></g><g clip-path="url(#E)"><g clip-path="url(#F)"><use href="#M" fill="#bccf7f"/></g></g><g clip-path="url(#G)"><g clip-path="url(#H)"><use href="#M" fill="#f5ac48"/></g></g><g clip-path="url(#I)"><g clip-path="url(#J)"><use href="#M" fill="#fad275"/></g></g><g clip-path="url(#K)"><g clip-path="url(#L)"><use href="#M" fill="#bccf7f"/></g></g></svg>